<svg width="84" height="88" viewBox="0 0 84 88" fill="none" xmlns="http://www.w3.org/2000/svg">
<path d="M83.23 39.1801C80.4853 29.9157 69.1658 25.6801 60.9644 30.6571C50.678 26.8276 39.8818 21.5454 29.9797 17.0209C31.3016 7.25774 22.5061 -1.51327 12.7293 0.220217C-6.06377 3.82347 -3.13919 30.2701 15.534 30.6653C17.2184 38.6595 20.2684 47.3024 21.3232 54.9804C0.919248 60.121 7.01916 90.6941 27.9082 87.606C38.3037 86.0143 43.4987 75.8123 41.4736 66.2345C46.7368 62.3205 52.2043 58.6955 57.443 54.757C68.4653 65.7085 88.1306 54.7978 83.23 39.1801ZM56.876 54.19C51.5829 57.7933 46.4805 61.6691 41.1901 65.2805C37.5869 58.1749 30.9064 53.5849 22.3344 54.5662C20.5082 46.5529 18.434 38.5941 16.5179 30.5999C22.5769 29.1689 28.5242 25.3558 29.7671 18.3537C39.1105 21.5972 49.814 27.3836 59.5771 31.5293C51.8582 37.234 52.1744 47.2615 56.876 54.19Z" fill="#3F3756"/>
<path d="M29.3555 15.2056C29.0312 34.1541 0.842924 34.1513 0.521301 15.2029C0.845649 -3.74555 29.0339 -3.74283 29.3555 15.2056Z" fill="#A7943F"/>
<path d="M6.19327 3.74438C2.00673 15.8052 19.1263 25.8082 28.2598 20.7249C28.2598 20.7249 24.3567 29.3133 16.7986 29.5014C9.2405 29.6922 3.03701 25.9036 1.68783 20.8912C-0.759764 13.4476 1.77778 6.91427 6.19327 3.74438Z" fill="#8A7627"/>
<path d="M9.67389 1.77924C21.6202 0.138426 29.9933 8.84675 27.93 21.4636C33.0733 10.324 22.7704 -2.77798 9.67389 1.77924Z" fill="#B9A95D"/>
<path d="M11.2112 24.0993C10.8187 21.9133 8.39561 13.265 14.0485 12.4664C19.6388 11.3107 20.4047 18.7816 20.9116 22.0551L11.2112 24.0993Z" fill="#E7A746"/>
<path d="M10.279 17.3317C12.623 19.9155 18.0224 21.6027 20.9116 22.0551L11.2111 24.0994C11.0449 23.3961 10.2272 18.3238 10.279 17.3317Z" fill="#DC8A2C"/>
<path d="M11.5383 13.8429C15.9919 11.4907 19.3362 16.5549 20.4483 19.2859C19.5352 15.113 17.1285 9.84442 11.5383 13.8429Z" fill="#EBB963"/>
<path d="M14.9752 8.60422C15.0133 11.09 11.1103 11.09 11.1484 8.60422C11.1103 6.12119 15.0133 6.12119 14.9752 8.60422Z" fill="#E7A746"/>
<path d="M11.361 7.72373C11.7181 7.82731 14.1984 7.74281 14.2992 8.9121C14.5309 9.39181 14.7762 9.45995 14.7762 9.45995C15.5775 7.02053 12.8601 5.66862 11.361 7.72373Z" fill="#ECB963"/>
<path d="M82.9492 43.8491C82.6303 62.6313 54.6901 62.6286 54.3712 43.8464C54.6928 25.0642 82.6331 25.0669 82.9492 43.8491Z" fill="#DB5273"/>
<path d="M58.9502 33.3663C59.0129 44.9611 70.6812 53.3641 81.7554 49.5755C78.3593 59.5458 63.0986 61.1812 56.5544 52.0586C53.1937 47.1852 54.2921 35.6667 58.9502 33.3663Z" fill="#CC3653"/>
<path d="M64.1725 30.2782C74.2 28.9126 82.6167 39.7006 82.2624 48.2372C86.4053 36.836 75.2521 26.7921 64.1725 30.2782Z" fill="#E36F8C"/>
<path d="M64.7367 50.9984C62.1555 37.6783 74.4644 36.2065 74.5598 50.3088L64.8485 51.3173L64.7367 50.9984Z" fill="#A7943F"/>
<path d="M67.5686 40.7174C68.0483 40.652 73.0989 43.6093 73.0907 44.8303C73.4641 45.5935 74.1728 46.7737 74.1728 46.7737C73.7612 43.3503 72.4038 39.8779 67.5686 40.7174Z" fill="#B9A95D"/>
<path d="M64.5214 46.1521C65.9442 48.0246 72.2103 50.3795 74.5598 50.3087L64.8485 51.3171C64.6277 50.9274 64.4941 46.2775 64.5214 46.1521Z" fill="#8A7627"/>
<path d="M68.9696 36.3454C69.0078 38.9756 64.8757 38.9756 64.9139 36.3427C64.8757 33.7125 69.0078 33.7125 68.9696 36.3454Z" fill="#A7943F"/>
<path d="M65.8405 34.6419C66.7127 34.4565 68.8332 35.7785 68.1191 37.1467C67.9311 37.5556 67.9229 38.1198 67.9229 38.1198C70.5122 36.8742 68.2391 32.9466 65.8405 34.6419Z" fill="#B9A95D"/>
<path d="M41.0075 71.1489C40.6532 91.8308 9.89195 91.8281 9.54034 71.1489C9.89467 50.4697 40.6586 50.4724 41.0075 71.1489Z" fill="#E7A746"/>
<path d="M30.5276 80.9746C19.0173 81.2744 11.0803 68.1015 16.5261 58.0713C-4.29482 74.2832 25.6351 100.861 39.2768 78.3198C36.7747 79.9961 33.7656 80.9746 30.5276 80.9746Z" fill="#DC8A2C"/>
<path d="M17.2347 57.6215C28.3525 54.13 41.479 63.1191 40.1081 76.0876C44.867 62.3232 29.56 50.2815 17.2347 57.6215Z" fill="#ECB964"/>
<path d="M69.1767 40.8073C68.945 40.8073 68.7133 40.8073 68.4816 40.8073C68.7133 40.7337 68.945 40.7337 69.1767 40.8073Z" fill="#A7943F"/>
<path d="M21.3504 21.5235C20.688 17.8466 19.6387 12.1038 14.9479 12.0193C8.61087 12.3927 9.6575 19.5992 10.884 23.9711C11.0666 24.7343 12.0124 24.3554 12.5575 24.2845C15.2777 23.7067 17.9924 23.1016 20.6989 22.4666C21.2304 22.4611 21.4757 22.0114 21.3504 21.5235ZM20.4673 21.8097C17.4936 22.2921 14.2393 23.3769 11.4373 23.7312C11.0857 20.4223 9.18324 15.5299 12.7511 13.3821C17.897 10.2095 20.6008 18.0483 20.4673 21.8097Z" fill="#3F3756"/>
<path d="M13.1246 6.44557C10.2518 6.4592 10.1673 10.7166 13.0564 10.7657C15.8583 10.8365 15.8883 6.43739 13.1246 6.44557ZM14.5146 8.97766C13.9068 11.4416 10.2708 9.66724 11.7808 7.63939C12.6776 6.28476 15.0298 7.43769 14.5146 8.97766Z" fill="#3F3756"/>
<path d="M74.9577 49.3685C75.1403 37.2804 62.2618 36.678 64.2897 49.502C64.4641 50.1671 64.1534 51.6389 65.1482 51.5953C68.2663 51.3582 71.3626 50.8376 74.4835 50.5678C75.1376 50.5459 75.0068 49.8291 74.9577 49.3685ZM74.0991 49.9736C71.2045 50.3988 68.2772 50.6768 65.3826 51.0829C64.6576 51.1102 64.982 49.6111 64.8784 49.1177C64.922 47.0517 64.4995 44.8222 65.4862 42.9142C66.74 40.1178 70.9238 40.1532 72.5019 42.6553C73.8702 44.7622 73.9928 47.3025 74.2845 49.7201C74.3117 49.9027 74.2545 49.949 74.0991 49.9736Z" fill="#3F3756"/>
<path d="M66.9362 34.0015C63.9408 33.9306 63.8045 38.7059 66.9526 38.7195C69.9917 38.7822 69.9889 33.9334 66.9362 34.0015ZM68.1791 37.7329C65.6416 39.7089 63.6192 35.0754 66.7863 34.5848C68.6316 34.4049 69.4384 36.6399 68.1791 37.7329Z" fill="#3F3756"/>
<path d="M64.1784 45.5144C64.1752 45.5176 64.1752 45.5176 64.1752 45.5176C64.1752 45.5176 64.1784 45.5176 64.1784 45.5144Z" fill="#3F3756"/>
<path d="M83.23 39.1801C80.4853 29.9157 69.1658 25.6801 60.9644 30.6571C50.678 26.8276 39.8818 21.5454 29.9797 17.0209C31.3016 7.25774 22.5061 -1.51327 12.7293 0.220217C-6.06377 3.82347 -3.13919 30.2701 15.534 30.6653C17.2184 38.6595 20.2684 47.3024 21.3232 54.9804C0.919248 60.121 7.01916 90.6941 27.9082 87.606C38.3037 86.0143 43.4987 75.8123 41.4736 66.2345C46.7368 62.3205 52.2043 58.6955 57.443 54.757C68.4653 65.7085 88.1306 54.7978 83.23 39.1801ZM8.63818 27.4082C0.0715832 23.3034 -1.52017 10.6021 5.94527 4.64116C7.53703 3.26745 9.35501 2.32711 11.3938 1.80652C36.8755 -2.18377 32.4682 36.9315 8.63818 27.4082ZM40.2334 74.0652C39.8137 76.0467 39.0941 77.9928 37.9085 79.6554C24.4031 97.6662 -0.778807 76.2675 14.8471 60.0882C15.9673 58.9898 17.2865 58.0958 18.7066 57.439C29.5218 51.7942 42.8936 62.187 40.2334 74.0652ZM56.876 54.19C51.5829 57.7933 46.4805 61.6691 41.1901 65.2805C37.5869 58.1749 30.9064 53.5849 22.3344 54.5662C20.5082 46.5529 18.434 38.5941 16.5179 30.5999C22.5769 29.1689 28.5242 25.3558 29.7671 18.3537C39.1105 21.5972 49.814 27.3836 59.5771 31.5293C51.8582 37.234 52.1744 47.2615 56.876 54.19ZM82.2106 46.9072C81.889 48.1392 81.5237 49.4066 80.845 50.5077C74.2136 62.9229 54.5865 57.9432 54.7909 43.7891C56.0856 23.5678 85.4268 26.893 82.2106 46.9072Z" fill="#3F3756"/>
<path d="M20.6418 79.1621C20.4864 76.0331 17.3192 68.4259 23.8007 67.0958C25.8313 66.6706 27.9328 67.8535 28.5351 68.7012C29.4673 70.3256 30.9119 75.428 31.0263 76.987L20.6418 79.1621Z" fill="#DB5273"/>
<path d="M20.8489 68.7284C25.0109 67.3656 27.7011 68.7066 29.8843 72.2826C29.8843 72.2826 29.1593 69.1291 28.1754 68.3114C26.183 66.4662 22.5334 66.8941 20.8489 68.7284Z" fill="#E36E8C"/>
<path d="M20.3392 77.2296C20.2111 77.2378 22.5306 78.8432 22.5361 78.7968L20.6418 79.2629L20.3392 77.2296Z" fill="#CC3653"/>
<path d="M24.981 62.7621C25.0191 65.316 21.007 65.316 21.0452 62.7621C21.0098 60.2082 25.0191 60.2082 24.981 62.7621Z" fill="#DB5273"/>
<path d="M21.514 61.4892C22.825 61.113 24.4685 62.6721 24.7738 63.6424C25.7714 61.4728 23.0894 59.5921 21.514 61.4892Z" fill="#E36E8C"/>
<path d="M31.4352 76.442C30.3586 72.8932 30.0997 66.9569 25.3299 66.7115C19.4834 66.9296 18.8075 70.9499 19.6115 75.7415C20.421 79.9744 19.6415 80.0616 24.0761 78.955C26.3329 78.4262 28.5761 77.8457 30.8492 77.3823C31.4107 77.2706 31.547 77.0225 31.4352 76.442ZM30.5058 76.7963C28.0146 77.3796 25.5152 77.9492 23.0104 78.4644C20.3992 79.1867 21.1134 79.233 20.6391 76.7663C20.3856 74.0026 19.1291 70.2058 21.882 68.3278C25.2263 66.2809 28.6769 67.9953 29.481 71.7676C29.6609 72.5607 31.2008 76.5483 30.5058 76.7963Z" fill="#3F3756"/>
<path d="M23.0022 60.2028C19.7614 60.2109 19.7096 65.2315 22.9804 65.2424C26.262 65.2097 26.2593 60.2464 23.0022 60.2028ZM24.6975 63.1573C23.7135 66.3081 19.4044 63.2091 22.0482 61.2903C23.2693 60.4426 25.1172 61.6473 24.6975 63.1573Z" fill="#3F3756"/>
</svg>
