<svg width="123" height="117" viewBox="0 0 123 117" fill="none" xmlns="http://www.w3.org/2000/svg">
<g clip-path="url(#clip0_29_693)">
<path d="M114.285 31.0843V24.5151H113.259V31.0843C112.965 31.2029 112.722 31.4196 112.57 31.6974C112.419 31.9752 112.369 32.2968 112.43 32.607C112.491 32.9173 112.658 33.1969 112.903 33.3979C113.147 33.5989 113.455 33.7088 113.772 33.7088C114.089 33.7088 114.397 33.5989 114.641 33.3979C114.886 33.1969 115.053 32.9173 115.114 32.607C115.175 32.2968 115.125 31.9752 114.974 31.6974C114.822 31.4196 114.579 31.2029 114.285 31.0843Z" fill="#E6E6E6"/>
<path d="M116.677 97.3795H109.671V12.5981H106.937V97.3795H99.9301C99.0998 97.3795 98.2776 97.5424 97.5104 97.859C96.7433 98.1756 96.0463 98.6395 95.4592 99.2245C94.872 99.8094 94.4063 100.504 94.0885 101.268C93.7708 102.032 93.6072 102.851 93.6072 103.679L123 103.679C123 102.851 122.836 102.032 122.519 101.268C122.201 100.504 121.735 99.8094 121.148 99.2245C120.561 98.6395 119.864 98.1756 119.097 97.859C118.33 97.5424 117.507 97.3795 116.677 97.3795Z" fill="#E6E6E6"/>
<path d="M93.6215 25.1961H122.986L121.19 2.8362C121.125 2.06519 120.772 1.34656 120.201 0.821683C119.63 0.296809 118.883 0.0036926 118.106 0H98.5009C97.7242 0.00369302 96.977 0.296809 96.4063 0.821683C95.8356 1.34656 95.4828 2.06519 95.4171 2.8362L93.6215 25.1961Z" fill="#FF9F1C"/>
<path d="M10.4409 77.8926H100.068V68.7767C100.068 44.1597 79.9646 24.1321 55.2544 24.1321C30.5442 24.1321 10.4409 44.1597 10.4409 68.7767V77.8926Z" fill="#3F3D56"/>
<path opacity="0.2" d="M10.4409 77.8926H100.068V68.7767C100.068 44.1597 79.9646 24.1321 55.2544 24.1321C30.5442 24.1321 10.4409 44.1597 10.4409 68.7767V77.8926Z" fill="black"/>
<path d="M22.0569 81.048H91.0328C90.9673 77.4327 89.4807 73.9874 86.8926 71.4524C84.3045 68.9174 80.8214 67.495 77.1919 67.491H35.8978C32.2683 67.495 28.7852 68.9174 26.1971 71.4524C23.609 73.9874 22.1224 77.4327 22.0569 81.048Z" fill="#FF9F1C"/>
<path d="M13.8429 79.6457C21.4882 79.6457 27.6859 73.4714 27.6859 65.8549C27.6859 58.2385 21.4882 52.0642 13.8429 52.0642C6.19769 52.0642 0 58.2385 0 65.8549C0 73.4714 6.19769 79.6457 13.8429 79.6457Z" fill="#3F3D56"/>
<path d="M97.839 79.6457C105.484 79.6457 111.682 73.4714 111.682 65.8549C111.682 58.2385 105.484 52.0642 97.839 52.0642C90.1938 52.0642 83.9961 58.2385 83.9961 65.8549C83.9961 73.4714 90.1938 79.6457 97.839 79.6457Z" fill="#3F3D56"/>
<path d="M87.3982 72.8672V78.0095H23.4626V72.8672H9.15039V97.9309C9.15039 99.4665 9.76273 100.939 10.8527 102.025C11.9427 103.111 13.421 103.721 14.9625 103.721H95.8983C96.6615 103.721 97.4173 103.571 98.1225 103.28C98.8276 102.989 99.4683 102.563 100.008 102.025C100.548 101.487 100.976 100.849 101.268 100.147C101.56 99.4442 101.71 98.6913 101.71 97.9309V72.8672H87.3982Z" fill="#3F3D56"/>
<path opacity="0.2" d="M13.8429 68.6598C15.3979 68.6598 16.6584 67.404 16.6584 65.8549C16.6584 64.3058 15.3979 63.05 13.8429 63.05C12.288 63.05 11.0274 64.3058 11.0274 65.8549C11.0274 67.404 12.288 68.6598 13.8429 68.6598Z" fill="black"/>
<path opacity="0.2" d="M97.8391 68.6598C99.394 68.6598 100.655 67.404 100.655 65.8549C100.655 64.3058 99.394 63.05 97.8391 63.05C96.2841 63.05 95.0236 64.3058 95.0236 65.8549C95.0236 67.404 96.2841 68.6598 97.8391 68.6598Z" fill="black"/>
<path d="M60.3539 22.5567C60.3539 22.5567 60.6307 27.7959 62.5682 28.8989C64.5058 30.0019 62.5682 37.4471 62.5682 37.4471L53.4341 37.7228L52.8806 28.8989C52.8806 28.8989 53.9877 25.3142 53.4341 23.6597C52.8806 22.0053 60.3539 22.5567 60.3539 22.5567Z" fill="#FFB8B8"/>
<path d="M70.5951 95.3538L67.2737 99.2142L72.5328 104.178L75.3006 98.6628L70.5951 95.3538Z" fill="#FFB8B8"/>
<path d="M47.0679 95.3538L50.3894 99.2142L45.1304 104.178L42.3625 98.6628L47.0679 95.3538Z" fill="#FFB8B8"/>
<path d="M68.796 58.8173C68.796 58.8173 88.7249 65.4352 87.6177 71.7774C86.5106 78.1196 77.9301 100.455 77.9301 100.455C77.9301 100.455 73.2246 100.455 69.6264 95.4916L72.1175 89.9767C72.1175 89.9767 71.0103 86.9435 72.9478 86.392C74.8854 85.8405 75.9925 76.1894 75.9925 76.1894C75.9925 76.1894 61.8762 75.0864 58.8315 69.8472L53.2957 56.6113L68.796 58.8173Z" fill="#2F2E41"/>
<path d="M48.8671 58.8173C48.8671 58.8173 28.9382 65.4352 30.0453 71.7774C31.1525 78.1196 39.733 100.455 39.733 100.455C39.733 100.455 44.4384 100.455 48.0367 95.4916L45.5456 89.9767C45.5456 89.9767 46.6528 86.9435 44.7152 86.392C42.7777 85.8405 41.6705 76.1894 41.6705 76.1894C41.6705 76.1894 55.7869 75.0864 58.8315 69.8472L64.3674 56.6113L48.8671 58.8173Z" fill="#2F2E41"/>
<path d="M71.5639 102.11C71.5639 102.11 74.3318 99.628 74.6086 101.558C74.8854 103.488 74.3318 111.209 74.3318 111.209C74.3318 111.209 77.0997 117 72.9479 117C68.796 117 66.8585 112.588 67.4121 108.176C67.9656 103.764 65.4745 102.11 65.4745 102.11C65.4745 102.11 62.4298 96.0433 65.4745 95.4918C68.5192 94.9403 69.6264 96.319 69.6264 96.319C69.6264 96.319 68.5192 101.282 71.5639 102.11Z" fill="#2F2E41"/>
<path d="M46.0992 102.11C46.0992 102.11 43.3313 99.628 43.0545 101.558C42.7777 103.488 43.3313 111.209 43.3313 111.209C43.3313 111.209 40.5634 117 44.7152 117C48.8671 117 50.8046 112.588 50.2511 108.176C49.6975 103.764 52.1886 102.11 52.1886 102.11C52.1886 102.11 55.2333 96.0433 52.1886 95.4918C49.1439 94.9403 48.0367 96.319 48.0367 96.319C48.0367 96.319 49.1439 101.282 46.0992 102.11Z" fill="#2F2E41"/>
<path d="M56.0636 25.7278C59.5796 25.7278 62.4298 22.8883 62.4298 19.3856C62.4298 15.8829 59.5796 13.0435 56.0636 13.0435C52.5477 13.0435 49.6974 15.8829 49.6974 19.3856C49.6974 22.8883 52.5477 25.7278 56.0636 25.7278Z" fill="#FFB8B8"/>
<path d="M57.0324 30.2776L53.1573 27.2444L43.7465 31.6563L43.4697 56.7493C43.4697 56.7493 37.6571 59.5068 39.3178 63.0915C39.3178 63.0915 44.3001 64.1945 46.5144 66.4004C48.7287 68.6064 61.1843 65.5732 66.4433 63.9187C71.7023 62.2642 73.0863 60.334 73.0863 60.334L67.8272 52.8888L70.8719 33.8623L61.4621 27.5597L57.0324 30.2776Z" fill="#E6E6E6"/>
<path d="M63.8033 15.0689C63.6646 14.8814 63.5378 14.6854 63.4238 14.4821C63.2264 14.0032 63.5382 13.4387 63.2468 12.9915C62.9494 12.535 62.1944 12.4387 61.6807 12.1285C60.8893 11.6507 60.7455 10.7132 60.004 10.1866C59.4698 9.80726 58.7079 9.70499 57.9941 9.72663C57.2802 9.74828 56.5758 9.87686 55.8617 9.89097C54.8977 9.9124 53.9412 9.71753 53.063 9.3208L53.5899 10.3475C53.0044 10.2204 52.4451 9.99452 51.936 9.67968C51.703 9.96763 52.1293 10.4047 51.865 10.6748C51.7567 10.7619 51.6284 10.8211 51.4917 10.8472C50.4755 11.1349 49.5186 11.5999 48.6656 12.2208C48.4681 12.3459 48.3048 12.5177 48.19 12.7209C48.0527 13.0241 48.1745 13.359 48.1641 13.6813C48.1452 14.2671 47.6963 14.7779 47.3778 15.3055C47.0592 15.8332 46.8873 16.5173 47.3597 16.9652C47.4746 17.0562 47.5848 17.153 47.6898 17.2552C48.1631 17.8114 47.3252 18.626 47.7291 19.2162C47.9044 19.4725 48.2638 19.6022 48.5762 19.7536C49.1745 20.0323 49.6779 20.4792 50.0243 21.0394L49.7815 19.2641C49.7688 19.2202 49.7665 19.1739 49.7749 19.129C49.7833 19.0841 49.8021 19.0418 49.8299 19.0055C49.9475 18.8861 50.1938 18.9336 50.3561 18.8546C50.5347 18.7676 50.5482 18.568 50.5411 18.4008L50.4864 17.1119C50.4618 16.5323 50.455 16.4553 50.8835 15.9875C51.1828 15.6606 51.6538 15.4634 52.1268 15.3184C53.2077 14.9869 54.3703 14.8723 55.5194 14.7603C56.8539 14.6302 58.3565 13.9851 59.3928 14.67C60.2412 15.2306 60.5232 16.1522 60.932 16.9695C61.2994 17.7041 62.2423 19.867 63.0273 18.6962C63.5203 17.9609 64.2744 15.8876 63.8033 15.0689Z" fill="#2F2E41"/>
<path d="M57.1565 17.5459C57.1303 17.5459 57.1051 17.5563 57.0866 17.5748C57.068 17.5932 57.0576 17.6183 57.0576 17.6444V20.2997C57.0576 20.3259 57.068 20.3509 57.0866 20.3694C57.1051 20.3878 57.1303 20.3982 57.1565 20.3982H61.7448C61.771 20.3982 61.7962 20.3878 61.8147 20.3694C61.8333 20.3509 61.8437 20.3259 61.8438 20.2997V17.6444C61.8437 17.6183 61.8333 17.5932 61.8147 17.5748C61.7962 17.5563 61.771 17.5459 61.7448 17.5459L57.1565 17.5459Z" fill="#3F3D56"/>
<path d="M57.6693 17.78C57.6204 17.7801 57.5736 17.7995 57.539 17.8339C57.5045 17.8683 57.485 17.915 57.485 17.9637V19.9804C57.485 20.0291 57.5045 20.0758 57.539 20.1102C57.5736 20.1446 57.6204 20.164 57.6693 20.164H61.2321C61.281 20.164 61.3278 20.1446 61.3624 20.1102C61.3969 20.0758 61.4164 20.0291 61.4164 19.9804V17.9637C61.4164 17.915 61.3969 17.8683 61.3624 17.8339C61.3278 17.7995 61.281 17.7801 61.2321 17.78H57.6693Z" fill="#FF6584"/>
<path d="M57.2081 18.4204H54.8181V18.9719H57.2081V18.4204Z" fill="#3F3D56"/>
<path d="M50.6592 17.5459C50.633 17.5459 50.6078 17.5563 50.5893 17.5748C50.5708 17.5933 50.5603 17.6183 50.5603 17.6444V20.2997C50.5603 20.3258 50.5708 20.3509 50.5893 20.3693C50.6078 20.3878 50.633 20.3982 50.6592 20.3982H55.2475C55.2738 20.3982 55.2989 20.3878 55.3174 20.3693C55.3359 20.3509 55.3464 20.3258 55.3464 20.2997V17.6444C55.3464 17.6183 55.3359 17.5933 55.3174 17.5748C55.2989 17.5563 55.2738 17.5459 55.2475 17.5459L50.6592 17.5459Z" fill="#3F3D56"/>
<path d="M51.172 17.78C51.1231 17.7801 51.0763 17.7994 51.0417 17.8339C51.0071 17.8683 50.9877 17.915 50.9876 17.9637V19.9804C50.9877 20.0291 51.0071 20.0758 51.0417 20.1102C51.0763 20.1446 51.1231 20.164 51.172 20.164H54.7347C54.7836 20.164 54.8305 20.1446 54.865 20.1102C54.8996 20.0758 54.919 20.0291 54.9191 19.9804V17.9637C54.919 17.915 54.8996 17.8683 54.865 17.8339C54.8305 17.7994 54.7836 17.7801 54.7347 17.78H51.172Z" fill="#FF9F1C"/>
<path d="M48.151 50.6902H64.0436C64.6781 50.6902 65.2867 50.9413 65.7353 51.3883C66.184 51.8352 66.4361 52.4415 66.4361 53.0736H45.7586C45.7586 52.4415 46.0107 51.8352 46.4593 51.3883C46.908 50.9413 47.5165 50.6902 48.151 50.6902Z" fill="#3F3D56"/>
<path d="M65.1544 50.5198C65.0614 50.5202 64.9691 50.5359 64.8811 50.5662C64.851 50.4453 64.7774 50.3396 64.6744 50.269C64.5714 50.1985 64.446 50.1679 64.3219 50.1832C64.1978 50.1984 64.0836 50.2584 64.0008 50.3518C63.9181 50.4452 63.8725 50.5655 63.8728 50.6901C63.8728 50.6926 63.8734 50.695 63.8734 50.6975C63.8094 50.7036 63.7461 50.7166 63.6849 50.7364C63.6675 50.6677 63.636 50.6033 63.5924 50.5473C63.5488 50.4913 63.494 50.4449 63.4315 50.4111C63.5957 50.3206 63.7257 50.179 63.8013 50.0079C63.8974 50.0174 63.9944 50.0066 64.086 49.9763C64.1776 49.9459 64.2618 49.8967 64.333 49.8317C64.4043 49.7668 64.461 49.6877 64.4994 49.5994C64.5379 49.5112 64.5573 49.4159 64.5563 49.3197C64.5553 49.2235 64.534 49.1287 64.4937 49.0412C64.4534 48.9538 64.3951 48.8758 64.3226 48.8124C64.25 48.7489 64.1648 48.7014 64.0726 48.6729C63.9804 48.6445 63.8832 48.6357 63.7873 48.6471C63.6943 48.6476 63.602 48.6632 63.514 48.6935C63.4983 48.6266 63.469 48.5635 63.4281 48.5081C63.3872 48.4527 63.3354 48.4062 63.2759 48.3713C63.2164 48.3364 63.1505 48.3138 63.082 48.305C63.0136 48.2962 62.944 48.3013 62.8776 48.32C62.8112 48.3387 62.7492 48.3707 62.6955 48.4139C62.6418 48.4571 62.5975 48.5107 62.5651 48.5714C62.5328 48.6322 62.5132 48.6989 62.5074 48.7674C62.5016 48.8359 62.5099 48.9049 62.5316 48.9702C62.5112 48.9843 62.4921 49.0002 62.473 49.0161C62.3763 48.9332 62.2508 48.8915 62.1236 48.9002C62.0578 48.7122 61.9278 48.5532 61.7562 48.4511C61.5847 48.349 61.3825 48.3103 61.1852 48.3418C60.9879 48.3733 60.808 48.4729 60.677 48.6233C60.546 48.7736 60.4723 48.9651 60.4688 49.1642C60.4003 49.1696 60.3326 49.183 60.2672 49.2042C60.2598 49.1754 60.2499 49.1473 60.2377 49.1202C60.3051 49.0609 60.3593 48.9882 60.3968 48.9067C60.4342 48.8252 60.4541 48.7368 60.455 48.6471C60.443 48.4555 60.3554 48.2763 60.2114 48.1488C60.0673 48.0212 59.8784 47.9556 59.686 47.9662C59.593 47.9666 59.5006 47.9822 59.4127 48.0125C59.3969 47.9456 59.3677 47.8825 59.3268 47.8271C59.2858 47.7718 59.2341 47.7252 59.1746 47.6903C59.1151 47.6554 59.0492 47.6329 58.9807 47.6241C58.9122 47.6153 58.8427 47.6204 58.7763 47.6391C58.7099 47.6578 58.6479 47.6897 58.5942 47.7329C58.5405 47.7761 58.4962 47.8297 58.4638 47.8905C58.4315 47.9512 58.4119 48.0179 58.4061 48.0864C58.4003 48.1549 58.4086 48.2239 58.4303 48.2892C58.3227 48.3636 58.2337 48.4618 58.1704 48.576C58.1071 48.6903 58.071 48.8175 58.0651 48.9479C58.0578 48.9543 58.0495 48.9595 58.0427 48.9663C58.0555 48.9176 58.0621 48.8676 58.0626 48.8174C58.0506 48.6257 57.963 48.4466 57.8189 48.319C57.6749 48.1914 57.486 48.1258 57.2936 48.1364C57.2005 48.1368 57.1082 48.1525 57.0203 48.1828C57.0045 48.1158 56.9753 48.0528 56.9343 47.9974C56.8934 47.942 56.8416 47.8955 56.7822 47.8605C56.7227 47.8256 56.6567 47.8031 56.5883 47.7943C56.5198 47.7855 56.4503 47.7906 56.3838 47.8093C56.3174 47.828 56.2555 47.8599 56.2018 47.9031C56.1481 47.9464 56.1037 48 56.0714 48.0607C56.039 48.1215 56.0194 48.1881 56.0136 48.2566C56.0079 48.3252 56.0161 48.3942 56.0378 48.4594C55.9244 48.5375 55.8317 48.6419 55.7676 48.7635C55.7036 48.8852 55.6701 49.0205 55.6701 49.1579C55.6701 49.2953 55.7036 49.4306 55.7676 49.5522C55.8317 49.6739 55.9244 49.7782 56.0378 49.8563C56.0032 49.9553 56.0032 50.0629 56.0378 50.1619C55.9522 50.2214 55.8781 50.2959 55.8192 50.3818C55.7876 50.2674 55.7167 50.1677 55.619 50.1C55.5213 50.0323 55.4028 50.0008 55.2842 50.011C55.1656 50.0212 55.0543 50.0725 54.9697 50.1559C54.885 50.2393 54.8324 50.3497 54.821 50.4677C54.7524 50.4277 54.6784 50.398 54.6013 50.3793C54.7397 50.2883 54.8487 50.1593 54.9151 50.0079C55.0112 50.0174 55.1082 50.0066 55.1998 49.9763C55.2914 49.9459 55.3756 49.8967 55.4468 49.8317C55.5181 49.7668 55.5748 49.6877 55.6132 49.5994C55.6517 49.5112 55.6711 49.4159 55.6701 49.3197C55.6691 49.2235 55.6478 49.1287 55.6075 49.0412C55.5672 48.9538 55.5089 48.8758 55.4364 48.8124C55.3638 48.7489 55.2786 48.7014 55.1864 48.6729C55.0942 48.6445 54.997 48.6357 54.9011 48.6471C54.8081 48.6476 54.7158 48.6632 54.6278 48.6935C54.6121 48.6266 54.5828 48.5635 54.5419 48.5081C54.501 48.4527 54.4492 48.4062 54.3897 48.3713C54.3303 48.3364 54.2643 48.3138 54.1958 48.305C54.1274 48.2962 54.0578 48.3013 53.9914 48.32C53.925 48.3387 53.8631 48.3707 53.8094 48.4139C53.7556 48.4571 53.7113 48.5107 53.679 48.5714C53.6466 48.6322 53.627 48.6989 53.6212 48.7674C53.6154 48.8359 53.6237 48.9049 53.6454 48.9702C53.6344 48.9778 53.6246 48.9867 53.614 48.9948C53.5873 48.9923 53.5614 48.9876 53.534 48.9876C53.441 48.988 53.3487 49.0037 53.2607 49.034C53.2575 49.0211 53.2522 49.0092 53.248 48.9968C53.2646 48.921 53.2632 48.8424 53.2441 48.7672C53.2251 48.692 53.1888 48.6223 53.138 48.5634C53.0873 48.5046 53.0236 48.4582 52.9519 48.428C52.8802 48.3978 52.8024 48.3846 52.7247 48.3894C52.6802 48.266 52.6076 48.1545 52.5127 48.0636C52.4178 47.9727 52.303 47.905 52.1774 47.8656C52.0518 47.8263 51.9187 47.8164 51.7887 47.8368C51.6586 47.8571 51.535 47.9072 51.4276 47.9831C51.3202 48.0589 51.2319 48.1585 51.1695 48.274C51.1071 48.3896 51.0725 48.5179 51.0681 48.649C51.0638 48.7801 51.09 48.9104 51.1447 49.0298C51.1993 49.1491 51.2809 49.2542 51.3831 49.3369C51.3243 49.3436 51.2663 49.3562 51.2101 49.3745C51.1899 49.2915 51.1489 49.2149 51.091 49.1519C51.0331 49.089 50.9601 49.0416 50.8789 49.0143C50.7977 48.9869 50.7108 48.9805 50.6265 48.9956C50.5421 49.0107 50.4629 49.0469 50.3963 49.1007C50.3202 49.0105 50.2249 48.9384 50.1173 48.8894C50.0098 48.8404 49.8927 48.8158 49.7745 48.8174C49.6814 48.8178 49.5891 48.8335 49.5012 48.8637C49.4854 48.7968 49.4562 48.7337 49.4152 48.6784C49.3743 48.623 49.3226 48.5764 49.2631 48.5415C49.2036 48.5066 49.1376 48.4841 49.0692 48.4753C49.0007 48.4665 48.9312 48.4716 48.8648 48.4903C48.7983 48.509 48.7364 48.5409 48.6827 48.5841C48.629 48.6273 48.5846 48.6809 48.5523 48.7417C48.52 48.8024 48.5003 48.8691 48.4946 48.9376C48.4888 49.0062 48.497 49.0751 48.5188 49.1404C48.4053 49.2185 48.3126 49.3229 48.2486 49.4445C48.1845 49.5662 48.1511 49.7015 48.151 49.8389C48.151 49.8415 48.1518 49.8439 48.1518 49.8465C48.0306 49.8282 47.9068 49.8416 47.7923 49.8852C47.7765 49.8183 47.7473 49.7552 47.7064 49.6998C47.6654 49.6444 47.6137 49.5979 47.5542 49.563C47.4947 49.5281 47.4288 49.5056 47.3603 49.4967C47.2918 49.4879 47.2223 49.493 47.1559 49.5117C47.0895 49.5305 47.0275 49.5624 46.9738 49.6056C46.9201 49.6488 46.8758 49.7024 46.8434 49.7631C46.8111 49.8239 46.7914 49.8906 46.7857 49.9591C46.7799 50.0276 46.7881 50.0966 46.8099 50.1619C46.6451 50.273 46.5246 50.4382 46.4694 50.6287C46.4142 50.8192 46.4277 51.0229 46.5077 51.2045C46.5876 51.386 46.7289 51.5339 46.907 51.6224C47.0851 51.7109 47.2887 51.7345 47.4824 51.6889C47.5132 51.8665 47.6001 52.0297 47.7303 52.1549C47.8606 52.28 48.0274 52.3605 48.2067 52.3848C48.386 52.4091 48.5684 52.3758 48.7274 52.2898C48.8865 52.2038 49.0139 52.0696 49.0911 51.9066C49.7066 51.9864 50.3314 51.9583 50.9372 51.8238C50.9936 51.985 51.0977 52.1256 51.2357 52.2269C51.3736 52.3283 51.5391 52.3858 51.7104 52.392C51.8818 52.3981 52.051 52.3526 52.1959 52.2613C52.3408 52.1701 52.4547 52.0373 52.5227 51.8805C52.6473 51.8781 52.7697 51.8479 52.8811 51.7922C52.9591 51.9295 53.074 52.0424 53.2129 52.1181C53.3518 52.1939 53.5091 52.2295 53.6672 52.221C53.8254 52.2125 53.978 52.1602 54.1079 52.07C54.2377 51.9797 54.3398 51.8552 54.4024 51.7103C54.5925 51.6744 54.7892 51.706 54.9583 51.7995C55.1275 51.893 55.2584 52.0426 55.3283 52.2223C55.4426 52.0664 55.5896 51.9373 55.7592 51.8438C55.9287 51.7503 56.1166 51.6948 56.3099 51.6811C56.4816 51.7288 56.6642 51.7203 56.8307 51.657C56.9973 51.5936 57.139 51.4787 57.2352 51.3291C57.1815 51.5364 57.2082 51.7563 57.31 51.9448C57.4118 52.1333 57.5813 52.2767 57.7845 52.3463C57.9877 52.4159 58.2098 52.4066 58.4065 52.3203C58.6032 52.2339 58.7599 52.0769 58.8455 51.8805C58.9701 51.8781 59.0926 51.8479 59.2039 51.7922C59.2819 51.9295 59.3968 52.0424 59.5357 52.1181C59.6746 52.1939 59.832 52.2295 59.9901 52.221C60.1482 52.2125 60.3008 52.1602 60.4307 52.07C60.5606 51.9797 60.6626 51.8552 60.7253 51.7103C60.8499 51.7078 60.9723 51.6776 61.0837 51.6219C61.1438 51.7286 61.2265 51.821 61.3261 51.8926C61.4256 51.9642 61.5396 52.0134 61.6602 52.0366C61.7807 52.0599 61.9049 52.0568 62.0241 52.0274C62.1433 51.998 62.2547 51.9431 62.3504 51.8665C62.3801 52.0294 62.457 52.18 62.5716 52.2998C62.6862 52.4197 62.8335 52.5035 62.9953 52.5408C63.1572 52.5782 63.3265 52.5676 63.4823 52.5102C63.6382 52.4529 63.7738 52.3513 63.8724 52.2181C63.9749 52.2964 64.0941 52.3504 64.2207 52.3758C64.3474 52.4013 64.4782 52.3976 64.6032 52.365C64.7282 52.3325 64.8441 52.2719 64.9421 52.1879C65.04 52.104 65.1174 51.9988 65.1684 51.8805C65.2645 51.89 65.3615 51.8793 65.4531 51.8489C65.5447 51.8186 65.6289 51.7693 65.7001 51.7044C65.7713 51.6395 65.828 51.5603 65.8665 51.4721C65.905 51.3839 65.9243 51.2886 65.9234 51.1924C65.9224 51.0962 65.901 51.0013 65.8608 50.9139C65.8205 50.8265 65.7622 50.7485 65.6896 50.6851C65.6171 50.6216 65.5319 50.5741 65.4397 50.5456C65.3475 50.5171 65.2503 50.5084 65.1544 50.5198ZM49.8807 50.1685C49.8799 50.1726 49.8792 50.1768 49.8784 50.1809C49.8721 50.1807 49.8662 50.1793 49.8599 50.1793C49.8344 50.18 49.8089 50.1825 49.7838 50.187C49.7852 50.1839 49.7871 50.1812 49.7885 50.1781C49.8194 50.1766 49.8502 50.1733 49.8807 50.1685ZM57.0203 49.8852C57.0178 49.8753 57.0135 49.8662 57.0105 49.8565C57.1409 49.7664 57.2438 49.642 57.3075 49.4971C57.4199 49.4965 57.5309 49.4724 57.6333 49.4262C57.7357 49.38 57.8271 49.3128 57.9017 49.2291C57.8951 49.2617 57.8918 49.2949 57.8917 49.3281C57.8924 49.3801 57.9011 49.4316 57.9176 49.4809C57.7709 49.5828 57.6598 49.7279 57.6 49.8958C57.4141 49.8237 57.2086 49.82 57.0203 49.8852ZM62.1384 49.9487C62.1381 49.9383 62.1394 49.9275 62.1387 49.9171C62.1605 49.9171 62.1822 49.9156 62.2038 49.9127C62.237 50.0229 62.2924 50.1251 62.3666 50.2132C62.3505 50.2177 62.3335 50.2204 62.3178 50.2257C62.2902 50.1162 62.2272 50.0189 62.1384 49.9487Z" fill="#F9A825"/>
<path d="M47.48 51.5413C47.2376 51.5412 46.9978 51.5904 46.7751 51.6858C46.5524 51.7812 46.3515 51.9208 46.1848 52.0961C46.0181 52.2713 45.8889 52.4786 45.8053 52.7053C45.7216 52.9319 45.6852 53.1732 45.6982 53.4143L46.8554 69.2666C46.8798 69.7209 47.0781 70.1486 47.4096 70.4617C47.7411 70.7747 48.1804 70.9491 48.6372 70.9491H63.5575C64.0142 70.9491 64.4536 70.7747 64.785 70.4617C65.1165 70.1486 65.3149 69.7209 65.3393 69.2666L66.4965 53.4143C66.5095 53.1732 66.4731 52.9319 66.3894 52.7053C66.3057 52.4786 66.1766 52.2713 66.0099 52.0961C65.8431 51.9208 65.6423 51.7812 65.4196 51.6858C65.1969 51.5904 64.957 51.5412 64.7147 51.5413H47.48Z" fill="#3F3D56"/>
<path d="M49.3472 51.5413H48.3219V70.949H49.3472V51.5413Z" fill="#FF9F1C"/>
<path d="M52.2524 51.5413H51.2271V70.949H52.2524V51.5413Z" fill="#FF9F1C"/>
<path d="M55.1575 51.5413H54.1321V70.949H55.1575V51.5413Z" fill="#FF9F1C"/>
<path d="M58.0626 51.5413H57.0372V70.949H58.0626V51.5413Z" fill="#FF9F1C"/>
<path d="M60.9676 51.5413H59.9423V70.949H60.9676V51.5413Z" fill="#FF9F1C"/>
<path d="M63.8727 51.5413H62.8474V70.949H63.8727V51.5413Z" fill="#FF9F1C"/>
<path d="M62.845 61.1611L59.5235 63.0914C59.5235 63.0914 51.4966 69.7093 57.0324 70.8123C62.5682 71.9153 63.9522 66.1246 63.9522 66.1246L65.8897 63.9186L62.845 61.1611Z" fill="#FFB8B8"/>
<path d="M47.068 59.7825L50.3894 61.7127C50.3894 61.7127 58.4164 68.3306 52.8806 69.4336C47.3447 70.5366 45.9608 64.7459 45.9608 64.7459L44.0233 62.5399L47.068 59.7825Z" fill="#FFB8B8"/>
<path d="M67.2736 33.5867L70.8719 33.8624C70.8719 33.8624 73.6398 36.3441 73.363 39.6531C73.363 39.6531 75.8541 46.8225 75.3006 49.8557C75.3006 49.8557 75.8541 54.8192 75.0238 56.7494C74.1934 58.6796 67.2736 66.1248 67.2736 66.1248C67.2736 66.1248 60.9075 61.1614 61.1842 60.8856L69.488 52.6132L65.3361 47.0983L67.2736 33.5867Z" fill="#E6E6E6"/>
<path d="M43.7464 31.6562L43.608 31.7941C43.608 31.7941 37.3803 34.4137 37.657 37.7227C37.657 37.7227 35.1659 44.8921 35.7195 47.9253C35.7195 47.9253 35.1659 52.8888 35.9963 54.819C36.8267 56.7492 43.7464 64.1944 43.7464 64.1944C43.7464 64.1944 50.1126 59.2309 49.8358 58.9552L41.5321 50.6828L45.684 45.1679L43.7464 31.6562Z" fill="#E6E6E6"/>
</g>
<defs>
<clipPath id="clip0_29_693">
<rect width="123" height="117" fill="white"/>
</clipPath>
</defs>
</svg>
