<svg width="180" height="99" viewBox="0 0 180 99" fill="none" xmlns="http://www.w3.org/2000/svg">
<g clip-path="url(#clip0_17_75)">
<path d="M152.542 84.5913C156.539 87.5724 157.672 92.8176 157.672 92.8176C157.672 92.8176 152.324 93.2295 148.327 90.2483C144.33 87.2672 143.197 82.022 143.197 82.022C143.197 82.022 148.545 81.6102 152.542 84.5913Z" fill="#F1F1F1"/>
<path d="M150.877 85.9909C152.798 90.5938 157.609 92.9657 157.609 92.9657C157.609 92.9657 159.305 87.8749 157.384 83.2721C155.463 78.6693 150.652 76.2974 150.652 76.2974C150.652 76.2974 148.956 81.3881 150.877 85.9909Z" fill="#F1F1F1"/>
<path d="M35.8775 72.6848C36.3021 69.8225 36.4143 66.9225 36.2121 64.036L35.8775 59.2588C37.7213 62.9294 37.3046 67.7607 35.8775 72.6848Z" fill="#CACACA"/>
<path d="M34.4397 73.4841C34.6442 71.7761 34.698 70.0534 34.6007 68.336L34.4397 65.4924C35.3268 67.6773 35.1263 70.5531 34.4397 73.4841Z" fill="#CACACA"/>
<path d="M28.0489 77.0007V78.5991C28.0495 78.726 28.1002 78.8476 28.19 78.9374C28.2797 79.0272 28.4012 79.0779 28.5281 79.0786H29.3269C29.3479 79.0785 29.3687 79.0826 29.3881 79.0906C29.4075 79.0986 29.4252 79.1104 29.44 79.1252C29.4549 79.1401 29.4666 79.1577 29.4746 79.1772C29.4826 79.1966 29.4867 79.2174 29.4866 79.2384V92.3447C29.4873 92.4717 29.538 92.5933 29.6277 92.683C29.7175 92.7728 29.839 92.8236 29.9659 92.8242H39.7107C39.8378 92.8241 39.9596 92.7736 40.0495 92.6837C40.1393 92.5938 40.1899 92.4718 40.19 92.3447V79.2384C40.1901 79.1961 40.207 79.1555 40.2369 79.1255C40.2668 79.0956 40.3074 79.0787 40.3497 79.0786H41.3082C41.4353 79.0785 41.5571 79.0279 41.647 78.938C41.7368 78.8481 41.7874 78.7262 41.7875 78.5991V77.0007C41.7876 76.9378 41.7752 76.8754 41.7512 76.8171C41.7271 76.7589 41.6918 76.706 41.6473 76.6615C41.6028 76.617 41.5499 76.5816 41.4917 76.5576C41.4335 76.5335 41.3712 76.5212 41.3082 76.5212H28.5281C28.4011 76.5216 28.2795 76.5723 28.1897 76.6621C28.0999 76.7519 28.0492 76.8737 28.0489 77.0007Z" fill="#F2F2F2"/>
<path d="M29.4723 79.4143H40.1757V79.8938H29.4723V79.4143Z" fill="#E6E6E6"/>
<path d="M29.4866 86.4699C33.0682 87.9528 36.6889 87.9692 40.3497 86.4699V83.0918C36.8254 81.9075 33.0109 81.9075 29.4866 83.0918V86.4699Z" fill="#E6E6E6"/>
<path d="M89.4801 34.8195C81.4847 34.8195 75.0032 28.3346 75.0032 20.3351C75.0032 12.3357 81.4847 5.85083 89.4801 5.85083C97.4755 5.85083 103.957 12.3357 103.957 20.3351C103.957 28.3346 97.4755 34.8195 89.4801 34.8195Z" fill="#FEB8B8"/>
<path d="M75.9585 7.83924C78.1229 4.32276 81.511 1.7316 85.4704 0.564548L87.2477 1.86216V0.177247C88.1986 0.0316348 89.161 -0.0244592 90.1223 0.00970276L91.6557 1.39779V0.125026C93.926 0.407286 96.1131 1.15712 98.0793 2.32723C100.046 3.49735 101.748 5.06237 103.08 6.92362C106.409 11.7265 106.972 18.4084 103.696 23.2498C102.797 20.4853 101.706 17.8915 100.807 15.1273C100.1 15.2237 99.3841 15.2272 98.6766 15.1377L97.5828 12.584L97.2772 15.0296C93.8868 14.7342 88.858 14.0852 85.644 13.4907L85.9566 11.6145L84.0866 13.1735C83.102 12.9468 82.5173 12.741 82.5656 12.5838C80.1751 16.4395 77.2497 18.9021 74.8595 22.7578C73.9516 17.321 72.9066 12.8004 75.9585 7.83924Z" fill="#2F2E41"/>
<path d="M58.3445 57.5821C58.8423 54.5856 59.3558 51.5316 60.7477 48.8322C61.6625 47.0641 63.1147 45.3792 65.0723 45.0296C65.4579 44.9952 65.8369 44.9074 66.1984 44.7688C66.7719 44.4923 74.48 40.0899 75.7052 39.3231C76.7571 38.6648 78.4176 37.446 79.2549 37.446C80.0972 37.4275 83.3271 38.1796 95.9337 37.1936C95.9337 37.1936 99.3969 38.5594 102.077 40.2154C102.117 40.1887 115.161 47.1967 115.651 47.1783C116.579 47.1392 117.442 47.7337 117.974 48.4823C118.506 49.231 118.755 50.1578 119.016 51.0538C116.167 57.4017 113.561 63.7577 110.712 70.1056C110.578 70.3447 110.507 70.6137 110.505 70.8875C110.563 71.1717 110.684 71.439 110.86 71.6693C112.257 73.915 112.213 76.7395 112.06 79.3788C111.907 82.0182 111.718 84.8061 112.897 87.1718C113.218 87.8213 113.635 88.4158 113.94 89.0653C114.654 90.5363 114.912 95.2412 114.495 96.8216L62.2301 98.3197C63.3539 95.2291 58.3445 57.5821 58.3445 57.5821Z" fill="#FF9F1C"/>
<path d="M123.534 70.3868C123.638 71.1416 123.649 71.9064 123.565 72.6637L122.816 83.4272C122.746 84.4417 122.677 85.4537 122.582 86.4656C122.402 88.4295 122.133 90.3777 121.8 92.3232C121.793 92.5994 121.676 92.8613 121.476 93.0515C121.275 93.2417 121.008 93.3446 120.731 93.3376C117.434 94.0357 114.027 94.0078 110.662 93.8176C105.526 93.5309 92.3883 92.9883 91.5856 91.9451C90.783 90.9018 91.2507 89.2144 92.2973 88.3708C93.344 87.5273 110.682 85.4707 110.682 85.4707C110.512 84.1275 110.001 82.8626 109.516 81.5873C108.646 79.3255 107.832 76.9894 107.817 74.5665C107.801 72.1435 108.713 69.596 110.697 68.208C112.329 67.0684 114.43 66.857 116.419 66.9039C117.865 66.9455 120.365 66.5987 121.687 67.1647C122.733 67.6255 123.339 69.3623 123.534 70.3868Z" fill="#FBBEBE"/>
<path d="M119.167 51.247C119.421 51.513 119.618 51.8281 119.746 52.1729C121.853 56.9241 123.097 62.0126 123.421 67.2004C123.415 67.4533 123.474 67.7036 123.591 67.9281C123.706 68.0774 123.834 68.2161 123.974 68.3427C124.096 68.4872 124.188 68.6543 124.245 68.8345C124.302 69.0147 124.324 69.2044 124.308 69.3928C124.292 69.5812 124.239 69.7646 124.152 69.9325C124.065 70.1004 123.946 70.2496 123.802 70.3715C123.778 70.3915 123.754 70.4107 123.729 70.4292C123.299 69.6194 122.269 69.3547 121.354 69.2843C116.972 68.9375 112.692 70.977 108.297 70.8232C108.607 69.7512 109.053 68.7211 109.306 67.6362C110.424 62.8191 107.635 57.5745 109.345 52.9347C109.687 52.0062 110.257 51.0934 111.157 50.6865C111.529 50.5363 111.919 50.4331 112.317 50.3794C113.427 50.1786 115.638 49.3205 116.711 49.6648C117.108 49.7927 117.264 50.1655 117.593 50.3908C118.092 50.7097 118.754 50.827 119.167 51.247Z" fill="#FF9F1C"/>
<path d="M58.3131 67.1647C59.6347 66.5987 62.1345 66.9455 63.5813 66.9039C65.5699 66.857 67.6709 67.0684 69.3028 68.208C71.2866 69.596 72.199 72.1435 72.1833 74.5665C72.1677 76.9894 71.3544 79.3255 70.4836 81.5873C69.9989 82.8626 69.4878 84.1276 69.3184 85.4707C69.3184 85.4707 86.6561 87.5273 87.7027 88.3708C88.7493 89.2144 89.217 90.9018 88.4144 91.9451C87.6117 92.9883 62.566 94.0357 59.2685 93.3376C58.9924 93.3446 58.7248 93.2417 58.5245 93.0515C58.3241 92.8613 58.2074 92.5994 58.1999 92.3232C57.8666 90.3777 57.5981 88.4295 57.4184 86.4656C57.3232 85.4537 57.254 84.4417 57.1837 83.4272L56.4346 72.6638C56.3511 71.9064 56.3615 71.1416 56.4658 70.3869C56.6612 69.3624 57.2674 67.6255 58.3131 67.1647Z" fill="#FBBEBE"/>
<path d="M62.4075 50.3908C62.736 50.1655 62.8923 49.7927 63.2886 49.6648C64.3623 49.3205 66.573 50.1786 67.6835 50.3794C68.0814 50.4331 68.471 50.5363 68.8434 50.6865C69.7426 51.0934 70.3134 52.0062 70.655 52.9347C72.365 57.5745 69.5758 62.8191 70.6941 67.6362C70.9469 68.7211 71.3929 69.7512 71.703 70.8232C67.3081 70.977 63.0279 68.9375 58.6461 69.2843C57.731 69.3547 56.7014 69.6194 56.2713 70.4292C56.2464 70.4107 56.2221 70.3915 56.1983 70.3715C56.0539 70.2496 55.9349 70.1004 55.848 69.9325C55.7612 69.7646 55.7083 69.5812 55.6923 69.3928C55.6764 69.2044 55.6976 69.0147 55.7549 68.8345C55.8122 68.6543 55.9044 68.4872 56.0263 68.3427C56.166 68.2161 56.2942 68.0774 56.4094 67.9281C56.5263 67.7036 56.5846 67.4533 56.5789 67.2004C56.9026 62.0126 58.1472 56.9241 60.2543 52.1729C60.382 51.8281 60.5789 51.513 60.8328 51.247C61.2464 50.827 61.9085 50.7097 62.4075 50.3908Z" fill="#FF9F1C"/>
<path d="M93.7677 93.8518C91.6098 93.8518 89.8604 92.1016 89.8604 89.9425C89.8604 87.7835 91.6098 86.0332 93.7677 86.0332C95.9257 86.0332 97.675 87.7835 97.675 89.9425C97.675 92.1016 95.9257 93.8518 93.7677 93.8518Z" fill="#FBBEBE"/>
<path d="M85.1159 93.8518C82.9579 93.8518 81.2085 92.1016 81.2085 89.9425C81.2085 87.7835 82.9579 86.0332 85.1159 86.0332C87.2738 86.0332 89.0232 87.7835 89.0232 89.9425C89.0232 92.1016 87.2738 93.8518 85.1159 93.8518Z" fill="#FBBEBE"/>
<path d="M60.9969 98.7516H114.678C115.304 98.7509 115.905 98.5015 116.348 98.0581C116.792 97.6147 117.041 97.0136 117.042 96.3865V63.8033C117.041 63.1762 116.792 62.5751 116.348 62.1317C115.905 61.6883 115.304 61.4389 114.678 61.4382H60.9969C60.3701 61.4389 59.7693 61.6883 59.3261 62.1317C58.8829 62.5751 58.6336 63.1762 58.6329 63.8033V96.3865C58.6336 97.0136 58.8829 97.6147 59.3261 98.0581C59.7693 98.5015 60.3701 98.7509 60.9969 98.7516Z" fill="#7A797E"/>
<path d="M87.9674 81.6597C87.1036 81.6597 86.4034 80.9591 86.4034 80.0949C86.4034 79.2306 87.1036 78.53 87.9674 78.53C88.8312 78.53 89.5315 79.2306 89.5315 80.0949C89.5315 80.9591 88.8312 81.6597 87.9674 81.6597Z" fill="white"/>
<path d="M7.62939e-05 92.1794H180V97.7136H169.353V99H10.6428V97.7136H7.62939e-05V92.1794Z" fill="#F1F1F1"/>
<path d="M102.793 25.7337C105.119 25.7337 107.005 23.6937 107.005 21.1773V18.8991C107.005 16.3827 105.119 14.3428 102.793 14.3428L102.793 25.7337Z" fill="#FF9F1C"/>
<path d="M75.9095 14.3428C73.5834 14.3428 71.6977 16.3827 71.6977 18.8991V21.1773C71.6977 23.6937 73.5834 25.7336 75.9095 25.7336V14.3428Z" fill="#FF9F1C"/>
<path d="M73.7025 19.2571H74.3707C74.3707 10.0889 81.2657 2.6299 89.7409 2.6299C98.216 2.6299 105.111 10.0889 105.111 19.2571H105.779C105.779 9.69022 98.5845 1.90698 89.7409 1.90698C80.8972 1.90699 73.7025 9.69022 73.7025 19.2571Z" fill="#FF9F1C"/>
</g>
<defs>
<clipPath id="clip0_17_75">
<rect width="180" height="99" fill="white" transform="matrix(-1 0 0 1 180 0)"/>
</clipPath>
</defs>
</svg>
