<svg width="727" height="727" viewBox="0 0 727 727" fill="none" xmlns="http://www.w3.org/2000/svg">
<path d="M621.44 104.732H659.942V88.4614H621.44V104.732Z" fill="#EBEBEB"/>
<path d="M642.93 84.2157H681.432V67.9454H642.93V84.2157Z" fill="#EBEBEB"/>
<path d="M155.796 349.265H194.298V332.995H155.796V349.265Z" fill="#EBEBEB"/>
<path d="M177.257 328.749H215.759V312.479H177.257V328.749Z" fill="#EBEBEB"/>
<path d="M198.66 349.265H237.162V332.995H198.66V349.265Z" fill="#EBEBEB"/>
<path d="M45.5684 84.2157H84.0703V67.9454H45.5684V84.2157Z" fill="#EBEBEB"/>
<path d="M67.0585 495.872H105.56V479.602H67.0585V495.872Z" fill="#EBEBEB"/>
<path d="M45.5684 475.356H84.0703V459.086H45.5684V475.356Z" fill="#EBEBEB"/>
<path d="M621.44 495.872H659.942V479.602H621.44V495.872Z" fill="#EBEBEB"/>
<path d="M533.255 106.389H418.999V244.97H533.255V106.389Z" fill="#EBEBEB"/>
<path d="M520.198 119.039H432.056V232.335H520.198V119.039Z" fill="white"/>
<path d="M435.502 119.039H432.056V232.335H435.502V119.039Z" fill="#DBDBDB"/>
<path d="M536.7 106.389H533.255V244.97H536.7V106.389Z" fill="#DBDBDB"/>
<path d="M486.508 144.731H465.731V206.657H486.508V144.731Z" fill="#DBDBDB"/>
<path d="M504.538 191.579H447.687V159.795H504.538V191.579ZM449.112 190.125H503.084V161.249H449.141L449.112 190.125Z" fill="#EBEBEB"/>
<path d="M646.187 278.368H531.931V416.949H646.187V278.368Z" fill="#EBEBEB"/>
<path d="M633.115 291.018H544.974V404.314H633.115V291.018Z" fill="white"/>
<path d="M548.42 291.018H544.974V404.314H548.42V291.018Z" fill="#DBDBDB"/>
<path d="M649.618 278.368H646.172V416.949H649.618V278.368Z" fill="#DBDBDB"/>
<path d="M598.336 320.302H580.524V365.317H598.336V320.302Z" fill="#EBEBEB"/>
<path d="M613.69 379.494H564.414V346.939H613.69V379.494ZM565.868 378.04H612.236V348.393H565.868V378.04Z" fill="#DBDBDB"/>
<path d="M78.0217 182.637L331.948 182.637V171.499L78.0217 171.499V182.637Z" fill="#EBEBEB"/>
<path d="M317.728 182.651H306.59V219.481H317.728V182.651Z" fill="#EBEBEB"/>
<path d="M317.728 182.651H306.59V194.036H317.728V182.651Z" fill="#DBDBDB"/>
<path d="M103.394 182.651H92.2563V219.481H103.394V182.651Z" fill="#EBEBEB"/>
<path d="M103.394 182.651H92.2563V194.036H103.394V182.651Z" fill="#DBDBDB"/>
<path d="M284.562 171.514V100.544H266.693V171.514H284.562Z" fill="#C7C7C7"/>
<path d="M284.562 104.543V96.7492H266.693V104.543H284.562Z" fill="#DBDBDB"/>
<path d="M284.562 117.44V114.546H266.693V117.44H284.562Z" fill="#DBDBDB"/>
<path d="M284.562 162.208V154.415H264.468V162.208H284.562Z" fill="#DBDBDB"/>
<path d="M266.693 171.514V88.7231H254.203V171.514H266.693Z" fill="#DBDBDB"/>
<path d="M264.235 128.345V96.502H256.747V128.345H264.235Z" fill="#EBEBEB"/>
<path d="M174.122 171.548L233 113.344L224.219 104.462L165.341 162.665L174.122 171.548Z" fill="#C7C7C7"/>
<path d="M186.152 156.07L208.797 133.684L203.523 128.349L180.877 150.735L186.152 156.07Z" fill="#DBDBDB"/>
<path d="M254.203 171.528V108.643H232.989V171.528H254.203Z" fill="#A6A6A6"/>
<path d="M254.217 164.855V158.995H233.004V164.855H254.217Z" fill="#C7C7C7"/>
<path d="M254.203 155.142V152.874H232.989V155.142H254.203Z" fill="#C7C7C7"/>
<path d="M299.204 171.528V112.438H284.548V171.528H299.204Z" fill="#A6A6A6"/>
<path d="M299.204 165.262V159.751H284.548V165.262H299.204Z" fill="#C7C7C7"/>
<path d="M299.204 130.118V124.608H284.548V130.118H299.204Z" fill="#C7C7C7"/>
<path d="M299.219 136.022V133.884H284.562V136.022H299.219Z" fill="#C7C7C7"/>
<path d="M129.406 95.8041C141.91 108.047 143.946 126.978 141.372 143.553C141.372 143.931 140.718 143.83 140.718 143.553C140.718 139.773 140.834 136.036 140.82 132.314C140.82 132.14 140.704 131.98 140.631 131.805C137.261 129.591 134.473 126.599 132.503 123.081C130.424 118.981 129.595 114.357 128.01 109.995C127.85 109.588 128.286 109.704 128.577 109.995C136.182 115.593 138.61 121.627 140.791 129.697C140.747 125.482 140.304 121.28 139.468 117.149C138.008 109.346 134.409 102.102 129.072 96.2257C128.839 95.964 129.159 95.586 129.406 95.8041Z" fill="#A6A6A6"/>
<path d="M127.021 97.229C124.884 97.229 123.532 100.748 121.86 101.751C121.683 101.894 121.477 101.997 121.258 102.056C121.038 102.115 120.808 102.126 120.584 102.091C120.359 102.055 120.144 101.973 119.953 101.849C119.762 101.726 119.6 101.563 119.475 101.373C117.818 99.061 120.1 96.1967 122.238 94.5973C120.822 95.4278 119.327 96.1146 117.774 96.6474C117.562 96.7151 117.338 96.7369 117.117 96.7115C116.896 96.686 116.682 96.6138 116.491 96.4997C116.3 96.3856 116.136 96.2321 116.008 96.0496C115.881 95.867 115.794 95.6594 115.753 95.4406C115.026 92.2854 118.995 90.875 121.714 90.8169C120.391 89.9008 116.625 87.4 118.632 86.1786C120.638 84.9572 125.044 88.505 126.498 89.6827C128.621 91.413 131.151 94.0447 131.253 96.6765C131.442 99.8317 128.679 97.8978 127.021 97.229Z" fill="#DBDBDB"/>
<path d="M127.647 97.767C124.899 96.5165 119.621 98.3195 119.17 97.2726C118.254 95.1498 122.485 93.6958 124.753 93.4195C122.659 92.8525 118.646 91.9655 118.763 89.9299C118.908 87.4581 124.928 89.581 127.981 91.9074C131.805 94.8154 131.791 97.7234 131.151 98.2613C130.278 99.032 128.097 97.9705 127.647 97.767Z" fill="#EBEBEB"/>
<path d="M157.846 94.5972C144.891 106.346 142.07 125.131 144.077 141.852C144.077 142.23 144.717 142.158 144.731 141.852C144.877 138.072 144.891 134.335 145.051 130.613L145.269 130.118C148.716 128.026 151.613 125.139 153.717 121.7C155.956 117.672 156.945 113.078 158.704 108.861C158.879 108.454 158.428 108.556 158.137 108.759C150.329 114.066 147.668 120.013 145.182 127.981C145.388 123.77 145.992 119.588 146.985 115.491C148.737 107.748 152.608 100.644 158.166 94.9753C158.37 94.7281 158.064 94.3937 157.846 94.5972Z" fill="#A6A6A6"/>
<path d="M160.144 96.1094C162.281 96.2694 163.502 99.7444 165.131 100.82C165.303 100.97 165.504 101.081 165.722 101.148C165.939 101.215 166.169 101.235 166.395 101.208C166.621 101.18 166.839 101.106 167.034 100.989C167.23 100.872 167.399 100.716 167.53 100.53C169.275 98.2759 167.108 95.3388 165.029 93.6522C166.401 94.5451 167.863 95.2908 169.391 95.8768C169.6 95.9548 169.824 95.9868 170.047 95.9705C170.27 95.9542 170.487 95.8901 170.683 95.7824C170.879 95.6748 171.049 95.5262 171.183 95.3468C171.316 95.1674 171.409 94.9613 171.456 94.7427C172.299 91.6166 168.388 90.0608 165.64 89.9009C166.992 89.0285 170.86 86.6875 168.897 85.3789C166.934 84.0703 162.339 87.4727 160.856 88.5777C158.66 90.2207 156.029 92.7071 155.84 95.397C155.578 98.5376 158.486 96.7056 160.144 96.1094Z" fill="#DBDBDB"/>
<path d="M159.489 96.6183C162.295 95.4696 167.501 97.4762 167.995 96.4438C168.984 94.3646 164.811 92.7507 162.557 92.3872C164.665 91.8928 168.722 91.1513 168.679 89.1157C168.679 86.6439 162.528 88.5341 159.402 90.7587C155.447 93.5504 155.36 96.3857 155.985 96.9818C156.814 97.796 159.039 96.8073 159.489 96.6183Z" fill="#EBEBEB"/>
<path d="M144.6 125.64C143.718 131.925 142.372 138.136 140.573 144.222C140.534 144.327 140.459 144.415 140.362 144.47C140.264 144.524 140.15 144.541 140.04 144.518C139.931 144.495 139.833 144.434 139.765 144.345C139.697 144.255 139.664 144.145 139.671 144.033C140.515 138.304 142.07 132.692 142.928 126.963C143.862 121.168 144.204 115.293 143.946 109.428C143.393 99.788 140.776 89.5228 134.48 81.962C134.35 81.7875 134.64 81.5403 134.786 81.7003C147.363 96.4002 145.4 114.43 145.4 116.044C147.188 109.951 149.02 102.958 155.782 96.7783C156.072 96.5165 156.29 96.6474 156.247 97.0981C155.04 108.381 151.885 114.27 145.356 120.362C145.109 122.136 144.877 123.881 144.6 125.64Z" fill="#A6A6A6"/>
<path d="M134.335 83.6632C132.067 82.6454 128.941 85.5388 126.702 85.7278C126.448 85.7892 126.183 85.7964 125.926 85.7489C125.669 85.7014 125.425 85.6003 125.21 85.4521C124.994 85.304 124.813 85.1121 124.676 84.8891C124.54 84.666 124.452 84.4168 124.419 84.1575C123.866 80.9151 127.676 79.0976 130.7 78.516C128.795 78.3997 126.92 78.9086 125.044 78.3997C124.793 78.3599 124.553 78.2674 124.34 78.1281C124.126 77.9889 123.945 77.8062 123.808 77.5919C123.671 77.3776 123.58 77.1367 123.543 76.885C123.505 76.6333 123.521 76.3765 123.59 76.1315C124.433 72.4819 129.246 73.0199 132.11 74.3285C131.194 72.7145 128.534 68.2217 131.224 67.96C133.913 67.6983 136.676 73.6451 137.65 75.608C138.988 78.516 140.326 82.4273 139.104 85.2771C137.607 88.5777 135.731 85.1753 134.335 83.6632Z" fill="#DBDBDB"/>
<path d="M134.713 84.521C132.489 81.8457 126.105 81.046 126.164 79.7374C126.294 77.0911 131.398 77.7018 133.899 78.5596C132.009 76.9166 128.301 73.9505 129.45 71.9149C130.904 69.4285 136.022 74.6629 137.999 78.6178C140.5 83.5905 139.046 86.5276 138.101 86.7893C136.807 87.24 135.091 84.9572 134.713 84.521Z" fill="#EBEBEB"/>
<path d="M152.888 129.028L158.486 171.572H124.622C125.306 167.806 131.616 129.042 131.616 129.042L152.888 129.028Z" fill="#DBDBDB"/>
<path d="M526.595 664.551C598.554 664.551 656.888 657.527 656.888 648.862C656.888 640.197 598.554 633.173 526.595 633.173C454.636 633.173 396.302 640.197 396.302 648.862C396.302 657.527 454.636 664.551 526.595 664.551Z" fill="#EBEBEB"/>
<path d="M658.677 611.48L584.886 611.829L511.081 611.959L363.5 612.207L215.919 611.959L142.114 611.829L68.3235 611.48L142.114 611.116L215.919 610.985L363.5 610.753L511.081 610.985L584.886 611.116L658.677 611.48Z" fill="#263238"/>
<path d="M409.374 395.662C412.321 395.662 414.71 393.273 414.71 390.326C414.71 387.379 412.321 384.99 409.374 384.99C406.427 384.99 404.038 387.379 404.038 390.326C404.038 393.273 406.427 395.662 409.374 395.662Z" fill="white"/>
<path d="M490.783 395.662C493.73 395.662 496.119 393.273 496.119 390.326C496.119 387.379 493.73 384.99 490.783 384.99C487.836 384.99 485.447 387.379 485.447 390.326C485.447 393.273 487.836 395.662 490.783 395.662Z" fill="white"/>
<path d="M572.193 395.662C575.14 395.662 577.529 393.273 577.529 390.326C577.529 387.379 575.14 384.99 572.193 384.99C569.246 384.99 566.856 387.379 566.856 390.326C566.856 393.273 569.246 395.662 572.193 395.662Z" fill="white"/>
<path d="M296.34 331.876C356.23 390.428 437.916 526.45 448.588 547.664C455.858 562.073 380.57 602.014 377.124 591.502C372.762 578.038 295.627 435.269 277.234 354.834C269.179 319.604 284.242 320.055 296.34 331.876Z" fill="#F7A9A0"/>
<path d="M373.329 581.6C376.135 588.783 385.804 619.404 392.231 623.083C398.658 626.761 431.765 625.264 448.472 624.915C465.178 624.566 468.363 619.84 467.97 614.097C467.577 608.354 432.492 607.99 432.492 607.99C432.492 607.99 479.558 620.407 491.452 622.312C503.346 624.217 530.55 630.542 534.272 620.698C535.959 616.249 528.456 611.974 528.456 611.974C528.456 611.974 539.914 615.057 541.542 609.357C543.476 602.872 534.345 599.513 534.345 599.513C534.345 599.513 541.499 600.807 541.542 595.544C541.673 583.81 497.021 578.968 497.021 578.968C497.021 578.968 531.466 594.86 532.353 585.264C533.604 571.975 463.419 558.903 456.033 553.276C451.192 549.358 447.133 544.563 444.066 539.143L373.329 581.6Z" fill="#F7A9A0"/>
<path d="M467.752 616.99C467.838 616.182 467.729 615.364 467.436 614.606C467.143 613.847 466.673 613.169 466.065 612.628C464.844 611.548 463.447 610.682 461.936 610.069C458.824 608.806 455.601 607.833 452.31 607.161C445.68 605.707 438.919 604.588 432.158 602.988C439.102 602.738 446.05 603.373 452.834 604.879C456.294 605.596 459.637 606.795 462.765 608.441C464.379 609.289 465.8 610.462 466.938 611.887C467.495 612.599 467.861 613.441 468.004 614.333C468.146 615.226 468.06 616.14 467.752 616.99Z" fill="#263238"/>
<path d="M528.355 611.989C523.513 610.913 518.744 609.648 513.974 608.383C509.205 607.118 504.465 605.751 499.711 604.428L485.52 600.298C480.794 598.932 476.054 597.565 471.271 596.256C476.212 596.686 481.119 597.453 485.956 598.554C490.812 599.557 495.596 600.836 500.365 602.174C505.134 603.512 509.831 605.082 514.498 606.667C519.165 608.252 523.818 609.997 528.355 611.989Z" fill="#263238"/>
<path d="M482.335 584.319C486.885 584.519 491.414 585.048 495.887 585.904C500.369 586.706 504.806 587.75 509.176 589.03C513.551 590.293 517.851 591.797 522.059 593.537C526.275 595.246 530.366 597.247 534.301 599.528C529.939 598.074 525.737 596.62 521.433 595.239C517.13 593.857 512.84 592.505 508.522 591.284C504.204 590.062 499.798 588.841 495.436 587.663C491.074 586.485 486.756 585.424 482.335 584.319Z" fill="#263238"/>
<path d="M488.995 573.007C503.723 573.974 517.992 578.521 530.565 586.253C523.585 583.941 516.81 581.469 509.874 579.317C502.939 577.165 496.032 575.101 488.995 573.007Z" fill="#263238"/>
<path d="M447.047 537.34L358.833 590.324C358.833 590.324 286.133 409.432 276.74 362.046C267.347 314.66 284.446 313.003 311.912 342.184C344.031 376.324 447.047 537.34 447.047 537.34Z" fill="#FF9F1C"/>
<path d="M357.684 568.034C364.314 564.864 370.552 560.764 376.833 556.911C383.114 553.058 389.178 549.336 395.328 545.483C407.716 537.733 420.395 530.216 432.26 521.652C432.307 521.609 432.337 521.551 432.347 521.488C432.356 521.425 432.343 521.361 432.311 521.306C432.279 521.252 432.228 521.21 432.169 521.188C432.109 521.166 432.043 521.166 431.983 521.186C418.781 527.744 406.204 535.726 393.656 543.447C387.375 547.324 381.142 551.294 374.958 555.355C368.86 559.1 362.977 563.182 357.335 567.583C357.102 567.801 357.437 568.165 357.684 568.034Z" fill="#263238"/>
<path d="M358.106 551.211C357.131 551.59 356.29 552.25 355.69 553.106C355.089 553.963 354.756 554.978 354.732 556.024C354.744 556.72 354.578 557.406 354.249 558.02C353.921 558.633 353.442 559.152 352.857 559.528C352.212 559.943 351.47 560.183 350.705 560.226C349.862 560.372 348.989 560.488 348.117 560.721C349.832 561.011 351.563 561.695 353.555 560.924C354.513 560.516 355.329 559.836 355.903 558.967C356.477 558.098 356.783 557.08 356.783 556.039C356.792 555.351 356.979 554.678 357.325 554.085C357.672 553.491 358.166 552.997 358.76 552.651C359.42 552.251 360.17 552.026 360.941 551.997C361.799 551.851 362.671 551.735 363.529 551.517C361.799 551.211 360.156 550.543 358.106 551.211ZM412.384 484.037C411.852 484.518 411.425 485.103 411.128 485.756C410.83 486.408 410.669 487.115 410.653 487.832C410.665 488.525 410.5 489.211 410.175 489.824C409.849 490.437 409.374 490.957 408.792 491.336C408.141 491.748 407.395 491.988 406.626 492.034C405.782 492.179 404.91 492.295 404.038 492.528C405.768 492.819 407.484 493.502 409.476 492.732C410.435 492.325 411.252 491.645 411.827 490.776C412.401 489.907 412.706 488.888 412.703 487.846C412.697 487.045 412.952 486.264 413.43 485.621L412.384 484.037ZM350.836 477.843C349.854 478.228 349.012 478.9 348.418 479.772C347.824 480.643 347.506 481.673 347.506 482.728C347.515 483.423 347.347 484.109 347.019 484.722C346.691 485.334 346.214 485.854 345.63 486.232C344.984 486.645 344.244 486.885 343.478 486.93C342.621 487.075 341.763 487.192 340.89 487.424C342.606 487.715 344.322 488.399 346.328 487.628C347.286 487.221 348.102 486.54 348.673 485.671C349.245 484.802 349.547 483.783 349.542 482.743C349.558 482.057 349.748 481.386 350.094 480.794C350.439 480.201 350.93 479.706 351.519 479.355C352.18 478.959 352.93 478.734 353.7 478.7C354.572 478.555 355.445 478.439 356.288 478.221C354.529 477.843 352.871 477.174 350.836 477.843ZM350.472 415.321C349.514 414.925 348.46 414.824 347.445 415.032C346.429 415.239 345.499 415.745 344.773 416.484C344.273 416.962 343.66 417.305 342.99 417.481C342.321 417.656 341.619 417.658 340.949 417.487C340.204 417.299 339.521 416.918 338.971 416.382C338.244 415.873 337.517 415.364 336.776 414.928C337.793 416.382 338.491 418.025 340.425 418.97C341.381 419.413 342.448 419.556 343.487 419.379C344.525 419.203 345.485 418.715 346.241 417.981C346.721 417.479 347.322 417.108 347.987 416.904C348.651 416.7 349.357 416.671 350.036 416.818C350.787 416.971 351.482 417.328 352.043 417.851C352.755 418.345 353.497 418.868 354.224 419.305C353.177 417.865 352.45 416.149 350.414 415.306L350.472 415.321ZM317.379 382.867C316.971 381.915 316.291 381.104 315.425 380.535C314.559 379.966 313.545 379.665 312.508 379.668C311.815 379.661 311.135 379.474 310.536 379.125C309.937 378.775 309.439 378.276 309.091 377.676C308.699 377.016 308.489 376.264 308.481 375.495C308.292 374.623 308.204 373.78 307.957 372.907C307.696 374.623 306.998 376.295 307.696 378.345C308.062 379.32 308.712 380.163 309.562 380.764C310.412 381.365 311.423 381.698 312.465 381.719C313.548 381.706 314.593 382.117 315.378 382.864C316.163 383.611 316.625 384.635 316.667 385.717C316.841 386.59 316.928 387.433 317.161 388.305C317.452 386.619 318.164 384.859 317.379 382.853V382.867ZM433.467 541.441C433.069 540.483 432.394 539.667 431.528 539.097C430.663 538.527 429.646 538.229 428.61 538.242C427.92 538.228 427.245 538.039 426.647 537.693C426.05 537.347 425.549 536.856 425.193 536.264C424.808 535.584 424.593 534.821 424.568 534.04C424.394 533.225 424.306 532.353 424.088 531.481C423.783 533.196 423.085 534.854 423.783 536.889C424.145 537.87 424.796 538.717 425.65 539.32C426.505 539.922 427.521 540.251 428.567 540.263C429.265 540.254 429.953 540.425 430.567 540.758C431.18 541.092 431.698 541.577 432.071 542.168C432.509 542.792 432.761 543.528 432.798 544.29C432.885 544.785 432.958 545.265 433.045 545.744L433.568 545.424C433.955 544.114 433.919 542.715 433.467 541.426V541.441ZM387.695 452.194C387.295 451.238 386.62 450.423 385.755 449.853C384.89 449.283 383.874 448.985 382.838 448.995C382.148 448.982 381.472 448.794 380.874 448.448C380.276 448.102 379.776 447.61 379.421 447.018C379.023 446.343 378.808 445.576 378.796 444.793C378.622 443.964 378.534 443.106 378.316 442.234C378.011 443.95 377.313 445.607 378.011 447.643C378.373 448.623 379.024 449.471 379.878 450.073C380.733 450.676 381.749 451.004 382.795 451.016C383.878 451.026 384.917 451.447 385.7 452.196C386.483 452.944 386.952 453.962 387.011 455.044C387.171 455.916 387.273 456.789 387.491 457.617C387.782 455.916 388.494 454.201 387.695 452.194ZM312.974 450.391C312.571 449.437 311.895 448.625 311.03 448.055C310.166 447.486 309.152 447.186 308.117 447.192C307.426 447.184 306.748 446.997 306.15 446.651C305.551 446.305 305.052 445.81 304.7 445.215C304.304 444.545 304.088 443.783 304.075 443.005C303.901 442.176 303.813 441.304 303.595 440.431C303.223 441.747 303.023 443.106 302.999 444.473C303.044 444.943 303.142 445.406 303.29 445.855C303.448 446.307 303.674 446.734 303.959 447.12C304.441 447.759 305.062 448.28 305.774 448.645C306.487 449.01 307.273 449.21 308.074 449.228C309.154 449.237 310.191 449.657 310.974 450.402C311.757 451.147 312.227 452.162 312.29 453.241C312.45 454.113 312.552 454.986 312.77 455.814C313.061 454.128 313.773 452.398 312.974 450.376V450.391ZM386.037 522.96C385.635 522.009 384.962 521.198 384.1 520.628C383.238 520.059 382.228 519.758 381.195 519.761C380.507 519.749 379.833 519.561 379.237 519.215C378.642 518.869 378.145 518.376 377.793 517.784C377.391 517.12 377.166 516.364 377.139 515.588C376.993 514.745 376.877 513.873 376.644 513.015C376.368 514.716 375.685 516.388 376.368 518.438C376.736 519.416 377.391 520.258 378.248 520.855C379.104 521.453 380.122 521.776 381.166 521.782C381.862 521.786 382.546 521.962 383.158 522.294C383.769 522.627 384.289 523.105 384.67 523.687C385.098 524.324 385.33 525.072 385.339 525.839C385.543 526.682 385.63 527.526 385.848 528.398C386.153 526.697 386.851 524.967 386.037 522.946V522.96ZM277.714 347.84C276.707 347.367 275.569 347.249 274.486 347.506C274.486 348.146 274.617 348.786 274.69 349.454C275.487 349.165 276.351 349.115 277.176 349.309C277.921 349.507 278.606 349.886 279.168 350.414C279.88 350.894 280.549 351.446 281.32 351.868C280.36 350.414 279.662 348.815 277.714 347.84Z" fill="white"/>
<path opacity="0.1" d="M396.288 567.802L358.833 590.324C358.833 590.324 286.133 409.432 276.74 362.046C272.189 339.116 273.832 326.888 279.895 323.704L396.288 567.802Z" fill="black"/>
<path d="M321.494 611.771H88.694C85.3062 607.772 130.177 395.779 225.166 329.113C255.322 307.957 293.955 316.798 300.396 342.824C327.863 453.939 324.591 608.208 321.494 611.771Z" fill="#FF9F1C"/>
<path d="M236.828 373.184C235.852 373.557 235.009 374.213 234.408 375.068C233.807 375.922 233.475 376.937 233.454 377.982C233.47 378.678 233.305 379.366 232.977 379.98C232.648 380.594 232.167 381.113 231.579 381.486C230.935 381.904 230.193 382.145 229.427 382.184C228.583 382.344 227.711 382.446 226.839 382.693C228.554 382.969 230.285 383.667 232.277 382.882C233.237 382.485 234.059 381.814 234.641 380.953C235.223 380.092 235.538 379.079 235.548 378.04C235.556 377.352 235.742 376.679 236.089 376.085C236.436 375.491 236.931 374.997 237.525 374.652C238.177 374.247 238.925 374.022 239.692 373.998C240.564 373.838 241.437 373.736 242.295 373.518C240.521 373.184 238.878 372.5 236.828 373.184ZM220.179 485.985C219.206 486.349 218.364 486.996 217.762 487.844C217.161 488.692 216.828 489.7 216.806 490.74C216.821 491.436 216.66 492.126 216.337 492.744C216.014 493.362 215.54 493.888 214.959 494.273C214.308 494.685 213.563 494.925 212.793 494.971C211.935 495.116 211.092 495.232 210.219 495.465C211.921 495.741 213.636 496.439 215.657 495.654C216.606 495.242 217.413 494.561 217.979 493.696C218.545 492.83 218.845 491.817 218.842 490.783C218.862 490.097 219.055 489.426 219.403 488.834C219.752 488.242 220.243 487.747 220.834 487.395C221.495 486.991 222.253 486.77 223.029 486.756C223.901 486.596 224.73 486.479 225.603 486.261C223.916 485.985 222.229 485.287 220.179 485.985ZM321.625 592.52C320.982 592.951 320.232 593.192 319.458 593.217C318.6 593.392 317.757 593.479 316.885 593.726C318.586 594.003 320.302 594.715 322.323 593.944C322.599 593.838 322.862 593.701 323.108 593.537C323.108 592.578 323.181 591.574 323.21 590.542C322.899 591.35 322.345 592.041 321.625 592.52ZM179.816 571.655C178.835 572.011 177.985 572.658 177.382 573.511C176.779 574.363 176.452 575.38 176.443 576.424C176.453 577.119 176.286 577.805 175.958 578.418C175.63 579.031 175.151 579.551 174.567 579.928C173.928 580.357 173.184 580.604 172.415 580.64C171.557 580.8 170.7 580.902 169.842 581.149C171.514 581.426 173.244 582.123 175.265 581.338C176.219 580.932 177.031 580.252 177.6 579.386C178.169 578.519 178.47 577.504 178.464 576.467C178.485 575.779 178.676 575.106 179.021 574.509C179.367 573.913 179.855 573.412 180.441 573.05C181.116 572.654 181.884 572.444 182.666 572.44C183.509 572.251 184.353 572.164 185.211 571.945C183.509 571.655 181.852 570.942 179.816 571.655ZM283.603 404.837C282.623 405.201 281.777 405.853 281.175 406.706C280.573 407.56 280.243 408.576 280.229 409.621C280.245 410.317 280.081 411.005 279.752 411.619C279.423 412.233 278.942 412.752 278.354 413.125C277.724 413.55 276.99 413.796 276.231 413.837C275.359 413.983 274.486 414.099 273.643 414.317C275.329 414.623 277.06 415.321 279.052 414.506C280.01 414.111 280.828 413.439 281.403 412.577C281.978 411.715 282.283 410.701 282.28 409.665C282.284 408.972 282.469 408.293 282.815 407.694C283.162 407.095 283.659 406.596 284.257 406.248C284.926 405.88 285.675 405.68 286.438 405.666C287.281 405.492 288.154 405.404 288.997 405.172C287.296 404.837 285.653 404.212 283.603 404.837ZM104.383 576.104C103.403 576.468 102.557 577.119 101.955 577.973C101.353 578.827 101.023 579.843 101.009 580.888C101.021 581.583 100.855 582.27 100.526 582.883C100.198 583.496 99.7188 584.016 99.1337 584.392C98.4903 584.81 97.748 585.05 96.9818 585.09C96.1385 585.264 95.2661 585.351 94.4228 585.584C96.0949 585.875 97.8106 586.587 99.8317 585.802C100.785 585.395 101.598 584.716 102.167 583.85C102.736 582.983 103.036 581.968 103.03 580.931C103.052 580.243 103.245 579.57 103.59 578.974C103.935 578.378 104.422 577.876 105.008 577.514C105.681 577.113 106.449 576.897 107.233 576.889C108.076 576.715 108.934 576.598 109.806 576.38C108.076 576.104 106.433 575.435 104.383 576.104ZM140.224 485.956C139.244 486.32 138.398 486.971 137.796 487.825C137.194 488.679 136.864 489.695 136.851 490.74C136.862 491.435 136.696 492.122 136.367 492.735C136.039 493.348 135.56 493.868 134.975 494.244C134.331 494.662 133.589 494.902 132.823 494.942C131.98 495.116 131.107 495.203 130.264 495.436C131.936 495.727 133.652 496.439 135.673 495.654C136.626 495.247 137.439 494.568 138.008 493.702C138.577 492.835 138.877 491.82 138.872 490.783C138.892 490.094 139.084 489.422 139.429 488.825C139.774 488.229 140.262 487.727 140.849 487.366C141.522 486.965 142.29 486.749 143.074 486.741C143.917 486.567 144.775 486.45 145.647 486.232C143.946 485.97 142.274 485.287 140.224 485.97V485.956ZM313.802 516.257C312.823 516.621 311.977 517.273 311.375 518.126C310.772 518.98 310.443 519.996 310.429 521.041C310.44 521.736 310.274 522.423 309.946 523.036C309.618 523.65 309.138 524.169 308.553 524.545C307.91 524.963 307.168 525.204 306.401 525.243C305.558 525.417 304.686 525.505 303.842 525.737C305.514 526.028 307.23 526.741 309.251 525.955C310.205 525.549 311.017 524.87 311.586 524.003C312.155 523.137 312.456 522.121 312.45 521.085C312.471 520.396 312.662 519.723 313.007 519.126C313.353 518.53 313.841 518.029 314.428 517.668C315.101 517.266 315.868 517.051 316.652 517.042C317.495 516.868 318.353 516.752 319.226 516.534C317.495 516.272 315.852 515.588 313.802 516.272V516.257ZM188.904 457.079C187.944 456.686 186.889 456.587 185.874 456.797C184.858 457.007 183.929 457.516 183.204 458.257C182.7 458.733 182.084 459.075 181.413 459.25C180.742 459.425 180.038 459.429 179.365 459.26C178.619 459.068 177.937 458.682 177.388 458.141C176.676 457.646 175.934 457.123 175.192 456.687C176.21 458.141 176.908 459.769 178.842 460.729C179.799 461.172 180.868 461.314 181.906 461.134C182.945 460.955 183.905 460.464 184.658 459.726C185.141 459.223 185.745 458.853 186.412 458.652C187.08 458.451 187.787 458.425 188.467 458.577C189.212 458.727 189.901 459.079 190.459 459.595C191.186 460.104 191.913 460.627 192.64 461.049C191.594 459.668 190.881 458.01 188.904 457.094V457.079ZM282.919 566.129C281.956 565.749 280.901 565.661 279.888 565.875C278.874 566.09 277.946 566.598 277.22 567.336C276.719 567.808 276.108 568.147 275.442 568.32C274.776 568.492 274.077 568.494 273.41 568.325C272.651 568.152 271.955 567.769 271.404 567.22C270.691 566.74 269.95 566.202 269.223 565.766C270.226 567.22 270.953 568.834 272.858 569.794C273.815 570.235 274.883 570.375 275.922 570.196C276.96 570.017 277.92 569.527 278.674 568.79C279.158 568.29 279.763 567.923 280.43 567.725C281.097 567.526 281.804 567.502 282.483 567.656C283.234 567.788 283.928 568.143 284.475 568.674C285.217 569.154 285.929 569.706 286.656 570.128C285.638 568.776 284.897 567.06 282.919 566.188V566.129ZM280.011 473.379C279.046 472.994 277.989 472.901 276.971 473.11C275.953 473.319 275.018 473.822 274.283 474.557C273.786 475.035 273.175 475.378 272.508 475.554C271.842 475.729 271.141 475.731 270.473 475.56C269.727 475.365 269.041 474.985 268.481 474.455C267.754 473.975 267.027 473.422 266.3 473.001C267.318 474.455 268.016 476.069 269.935 477.028C270.891 477.476 271.961 477.619 273.001 477.44C274.041 477.261 275 476.767 275.751 476.025C276.233 475.531 276.833 475.166 277.494 474.965C278.155 474.765 278.856 474.734 279.532 474.876C280.293 475.034 280.996 475.396 281.567 475.923C282.28 476.403 283.021 476.941 283.734 477.377C282.658 476.025 281.945 474.309 279.968 473.437L280.011 473.379ZM141.285 602.276C140.326 601.88 139.271 601.781 138.255 601.991C137.239 602.201 136.309 602.71 135.586 603.454C135.086 603.927 134.474 604.266 133.808 604.439C133.142 604.612 132.443 604.613 131.776 604.442C131.026 604.257 130.338 603.876 129.784 603.337C129.043 602.843 128.33 602.32 127.603 601.883C128.606 603.337 129.304 604.98 131.238 605.94C132.186 606.365 133.24 606.497 134.263 606.318C135.287 606.139 136.234 605.658 136.981 604.937C137.467 604.439 138.072 604.072 138.738 603.871C139.404 603.67 140.111 603.642 140.791 603.788C141.548 603.926 142.25 604.279 142.812 604.806C143.553 605.3 144.266 605.824 144.993 606.26C143.946 604.864 143.263 603.119 141.285 602.276ZM150.402 424.074C150.169 424.51 149.951 424.946 149.733 425.397C150.393 425.568 151.002 425.897 151.507 426.356C152.248 426.865 152.961 427.389 153.673 427.81C152.916 426.308 151.791 425.023 150.402 424.074ZM224.236 549.118C223.277 548.724 222.222 548.626 221.206 548.835C220.191 549.045 219.261 549.554 218.536 550.295C218.037 550.769 217.426 551.109 216.76 551.285C216.094 551.46 215.395 551.465 214.727 551.299C213.974 551.108 213.284 550.728 212.72 550.194C211.979 549.685 211.266 549.161 210.554 548.74C211.542 550.194 212.24 551.822 214.174 552.782C215.121 553.213 216.176 553.348 217.201 553.169C218.226 552.99 219.173 552.505 219.918 551.778C220.686 551.017 221.718 550.579 222.799 550.555C223.881 550.531 224.931 550.922 225.734 551.648C226.475 552.156 227.188 552.68 227.915 553.102C226.926 551.648 226.213 549.932 224.236 549.074V549.118ZM230.386 330.8C230.089 330.101 229.64 329.477 229.072 328.974C228.503 328.471 227.83 328.101 227.1 327.892C226.461 328.299 225.806 328.735 225.166 329.186L224.599 329.593C224.891 329.651 225.189 329.68 225.486 329.68C226.178 329.672 226.859 329.839 227.469 330.164C228.079 330.489 228.597 330.963 228.976 331.541C229.411 332.181 229.654 332.933 229.674 333.708C229.863 334.551 229.95 335.423 230.168 336.267C230.459 334.493 231.186 332.777 230.386 330.756V330.8ZM179.831 522.946C179.418 521.997 178.737 521.188 177.872 520.62C177.007 520.052 175.995 519.749 174.96 519.747C174.274 519.731 173.604 519.541 173.011 519.195C172.419 518.849 171.923 518.359 171.572 517.769C171.17 517.105 170.945 516.35 170.918 515.574C170.772 514.731 170.656 513.858 170.438 513C170.162 514.701 169.464 516.374 170.162 518.424C170.526 519.398 171.176 520.238 172.028 520.835C172.879 521.432 173.891 521.757 174.931 521.768C175.629 521.769 176.316 521.944 176.93 522.276C177.545 522.609 178.067 523.089 178.449 523.673C178.867 524.316 179.108 525.058 179.147 525.825C179.293 526.668 179.409 527.511 179.642 528.384C179.918 526.697 180.616 524.967 179.831 522.946ZM192.466 409.446C192.061 408.492 191.382 407.678 190.515 407.109C189.648 406.54 188.632 406.24 187.595 406.248C186.905 406.241 186.229 406.055 185.633 405.708C185.036 405.362 184.54 404.866 184.193 404.27C183.793 403.607 183.577 402.849 183.568 402.075C183.393 401.231 183.306 400.359 183.059 399.487C182.782 401.231 182.084 402.874 182.782 404.924C183.148 405.903 183.8 406.748 184.653 407.35C185.507 407.951 186.522 408.282 187.566 408.298C188.26 408.286 188.945 408.451 189.558 408.776C190.171 409.102 190.691 409.577 191.07 410.159C191.491 410.796 191.732 411.534 191.768 412.296C191.943 413.169 192.03 414.041 192.262 414.884C192.553 413.212 193.266 411.482 192.466 409.446ZM307.434 375.655C307.317 376.556 307.406 377.47 307.695 378.331C307.797 378.625 307.928 378.908 308.088 379.174C307.885 378.04 307.666 376.819 307.434 375.655ZM241.902 437.93C241.491 436.975 240.807 436.162 239.935 435.596C239.062 435.029 238.042 434.733 237.002 434.746C236.309 434.729 235.632 434.536 235.034 434.185C234.436 433.834 233.938 433.336 233.585 432.739C233.198 432.078 232.993 431.325 232.989 430.558C232.785 429.701 232.698 428.843 232.466 427.97C232.204 429.701 231.506 431.373 232.204 433.408C232.562 434.385 233.209 435.231 234.058 435.833C234.906 436.435 235.918 436.766 236.958 436.782C237.652 436.771 238.337 436.937 238.95 437.262C239.562 437.587 240.083 438.062 240.463 438.643C240.898 439.278 241.141 440.025 241.16 440.795C241.335 441.667 241.422 442.51 241.669 443.383C241.96 441.696 242.673 439.922 241.902 437.93ZM312.974 450.377C312.571 449.423 311.895 448.61 311.03 448.041C310.166 447.471 309.152 447.171 308.117 447.178C307.426 447.169 306.748 446.983 306.15 446.636C305.551 446.29 305.052 445.795 304.7 445.2C304.304 444.53 304.088 443.769 304.075 442.99C303.901 442.161 303.813 441.289 303.595 440.417C303.29 442.132 302.592 443.79 303.29 445.84C303.655 446.818 304.307 447.663 305.161 448.265C306.014 448.867 307.029 449.197 308.074 449.213C309.154 449.223 310.191 449.642 310.974 450.387C311.757 451.133 312.227 452.147 312.29 453.226C312.45 454.099 312.552 454.971 312.77 455.8C313.061 454.128 313.773 452.398 312.974 450.377ZM231.637 609.4C231.237 608.445 230.562 607.63 229.697 607.06C228.832 606.49 227.816 606.191 226.78 606.202C226.093 606.184 225.422 605.992 224.829 605.643C224.237 605.295 223.742 604.802 223.393 604.21C222.991 603.546 222.766 602.79 222.738 602.014C222.593 601.171 222.477 600.298 222.244 599.455C221.953 601.142 221.284 602.828 221.953 604.864C222.324 605.843 222.982 606.687 223.841 607.286C224.7 607.885 225.719 608.212 226.766 608.223C227.46 608.226 228.143 608.4 228.754 608.73C229.365 609.06 229.886 609.535 230.27 610.113C230.599 610.611 230.808 611.178 230.881 611.771H232C232.067 610.963 231.943 610.151 231.637 609.4ZM137.578 555.428C137.178 554.472 136.503 553.657 135.638 553.087C134.773 552.517 133.757 552.219 132.721 552.229C132.047 552.204 131.39 552.009 130.811 551.664C130.232 551.318 129.749 550.833 129.406 550.252C128.996 549.591 128.77 548.833 128.752 548.056C128.592 547.213 128.49 546.341 128.257 545.497C127.967 547.184 127.298 548.87 127.967 550.906C128.336 551.886 128.994 552.731 129.853 553.331C130.712 553.93 131.732 554.256 132.779 554.265C133.474 554.268 134.156 554.442 134.768 554.772C135.379 555.102 135.899 555.577 136.283 556.155C136.701 556.797 136.932 557.542 136.952 558.307C137.156 559.15 137.243 560.008 137.447 560.881C137.679 559.179 138.377 557.464 137.578 555.428ZM260.106 522.931C259.702 521.979 259.025 521.167 258.161 520.598C257.297 520.029 256.284 519.728 255.25 519.732C254.564 519.717 253.893 519.528 253.3 519.182C252.707 518.836 252.212 518.345 251.862 517.755C251.452 517.094 251.226 516.336 251.208 515.559C251.048 514.716 250.946 513.844 250.713 512.986C250.422 514.687 249.754 516.359 250.422 518.409C250.793 519.388 251.451 520.231 252.31 520.828C253.169 521.425 254.189 521.748 255.235 521.753C255.931 521.757 256.615 521.933 257.227 522.265C257.838 522.598 258.358 523.076 258.739 523.658C259.161 524.298 259.393 525.044 259.408 525.81C259.612 526.653 259.699 527.497 259.903 528.369C260.266 526.697 260.906 524.967 260.106 522.946V522.931ZM277.714 347.84C276.758 347.397 275.691 347.255 274.652 347.431C273.614 347.608 272.654 348.095 271.898 348.829C271.138 349.604 270.107 350.054 269.022 350.084C267.937 350.114 266.883 349.721 266.082 348.989C265.355 348.495 264.628 347.942 263.886 347.535C264.89 348.989 265.631 350.647 267.609 351.519C268.568 351.911 269.623 352.008 270.638 351.798C271.653 351.589 272.583 351.081 273.308 350.341C273.805 349.863 274.416 349.52 275.083 349.344C275.749 349.169 276.45 349.166 277.118 349.338C277.881 349.518 278.586 349.888 279.168 350.414C279.88 350.894 280.549 351.446 281.32 351.868C280.36 350.414 279.662 348.815 277.714 347.84Z" fill="white"/>
<path d="M284.984 365.928C272.334 365.928 255.977 342.94 251.266 326.249C250.96 325.1 264.57 285.406 266.446 277.263C266.824 275.577 314.747 301.472 314.747 301.472C314.747 301.472 305.776 317.379 302.592 331.599C302.33 332.792 297.212 365.855 284.984 365.928Z" fill="#F7A9A0"/>
<path d="M314.747 301.458C314.747 301.458 305.776 317.379 302.577 331.599C302.577 331.89 302.185 333.955 301.56 336.935C277.772 329.084 265.733 310.603 260.092 298.012C263 289.012 265.689 280.564 266.446 277.263C266.838 275.591 314.747 301.458 314.747 301.458Z" fill="#263238"/>
<path d="M344.016 214.581C344.016 214.581 358.048 226.78 355.518 244.33C352.988 261.88 343.406 277.976 341.69 278.339C339.974 278.703 344.016 214.581 344.016 214.581Z" fill="#263238"/>
<path d="M273.207 214.232C261.575 229.834 252.851 283.719 261.255 299.437C273.497 322.235 302.534 334.333 324.198 317.626C345.194 301.4 355.416 230.982 345.136 215.759C330.058 193.382 290.349 191.186 273.207 214.232Z" fill="#F7A9A0"/>
<path d="M330.233 268.147C330.233 268.016 330.465 268.394 330.436 268.539C329.389 272.116 328.808 276.391 331.774 278.426C331.861 278.426 331.774 278.659 331.687 278.615C327.848 277.045 328.677 271.375 330.233 268.147Z" fill="#263238"/>
<path d="M334.42 265.21C340.323 266.242 337.808 278.005 332.341 277.031C326.874 276.056 329.462 264.337 334.42 265.21Z" fill="#263238"/>
<path d="M298.07 295.438C298.681 296.514 299.19 297.925 300.455 298.419C301.79 298.78 303.187 298.859 304.555 298.652C304.584 298.647 304.613 298.652 304.639 298.665C304.665 298.679 304.685 298.701 304.697 298.728C304.708 298.755 304.711 298.785 304.703 298.813C304.696 298.841 304.68 298.866 304.657 298.884C303.941 299.448 303.084 299.806 302.179 299.919C301.275 300.032 300.357 299.895 299.524 299.524C298.853 299.119 298.317 298.525 297.983 297.816C297.649 297.107 297.533 296.315 297.648 295.54C297.619 295.264 297.91 295.278 298.07 295.438Z" fill="#263238"/>
<path d="M320.781 283.69C320.781 283.69 320.273 289.273 319.662 291.832C319.662 292.065 312.494 289.753 304.409 290.524C303.203 290.64 303.435 289.695 304.875 289.23C307.783 288.314 311.345 287.558 317.961 289.099C318.31 288.43 318.615 280.477 319.022 280.549C320.964 281.19 322.812 282.084 324.518 283.21C325.972 271.578 325.492 259.859 327.077 248.314C327.094 248.232 327.139 248.158 327.203 248.105C327.268 248.052 327.35 248.023 327.434 248.023C327.517 248.023 327.599 248.052 327.664 248.105C327.728 248.158 327.773 248.232 327.79 248.314C329.127 260.586 327.79 273.992 326.612 286.016C326.51 287.514 321.712 284.359 320.781 283.69Z" fill="#263238"/>
<path d="M311.229 256.893C309.571 257.111 308.015 257.024 306.372 257.082C304.497 257.082 303.028 257.373 301.371 256.326C300.951 255.985 300.652 255.518 300.519 254.994C300.385 254.471 300.424 253.918 300.629 253.418C301.705 251.295 303.973 250.67 306.212 250.51C308.465 250.273 310.726 250.884 312.552 252.225C312.938 252.558 313.221 252.994 313.367 253.483C313.513 253.971 313.517 254.491 313.378 254.981C313.239 255.471 312.963 255.912 312.582 256.25C312.202 256.589 311.732 256.812 311.229 256.893Z" fill="#263238"/>
<path d="M340.832 250.975C339.396 250.225 338.003 249.395 336.659 248.489C335.074 247.514 333.751 246.904 332.879 245.144C332.698 244.617 332.699 244.045 332.88 243.518C333.062 242.991 333.415 242.54 333.882 242.236C335.932 241.059 338.244 241.757 340.134 242.847C342.149 243.886 343.704 245.638 344.496 247.762C344.652 248.254 344.661 248.782 344.522 249.28C344.384 249.778 344.103 250.224 343.714 250.565C343.325 250.906 342.846 251.126 342.334 251.199C341.822 251.272 341.3 251.194 340.832 250.975Z" fill="#263238"/>
<path d="M298.215 262.476C299.335 262.185 300.492 262.068 301.647 262.127C302.838 262.189 304.013 262.424 305.136 262.825C306.31 263.277 307.39 263.943 308.321 264.788C309.274 265.72 310.009 266.852 310.473 268.103L311.316 270.371L309.019 269.804C307.402 269.392 305.743 269.163 304.075 269.121C302.339 269.033 300.61 269.399 299.059 270.182C300.222 268.615 301.957 267.571 303.886 267.274C305.787 266.916 307.742 266.951 309.629 267.376L308.248 268.99C307.476 267.181 306.105 265.692 304.366 264.773C302.426 263.741 300.358 262.968 298.215 262.476Z" fill="#263238"/>
<path d="M303.653 272.974C305.46 272.775 307.234 272.345 308.931 271.694C309.324 271.491 310.88 270.618 310.836 270.24C310.768 269.313 310.577 268.399 310.269 267.521C310.818 268.343 311.194 269.268 311.374 270.24C311.203 270.736 310.924 271.188 310.557 271.563C310.19 271.938 309.744 272.226 309.251 272.407C307.472 273.104 305.536 273.3 303.653 272.974Z" fill="#263238"/>
<path d="M314.878 290.335C314.878 290.335 309.949 295.729 305.078 295.831C299.48 295.947 299.495 290.931 305.922 288.924C309.28 287.892 314.878 290.335 314.878 290.335Z" fill="#263238"/>
<path d="M305.093 295.816C307.202 295.659 309.221 294.896 310.909 293.621C310.022 291.774 307.637 289.55 301.342 291.934C300.251 293.941 301.56 295.904 305.093 295.816Z" fill="#FF99BA"/>
<path d="M262.229 264.846C268.278 267.754 278.456 249.797 281.625 242.774C284.432 236.595 289.622 216.428 290.146 215.076C290.669 213.723 315.038 237.395 331.716 235.141C348.393 232.887 361.246 220.179 362.482 213.52C363.718 206.861 346.488 186.868 329.433 183.393C312.377 179.918 285.813 198.224 285.813 198.224C285.813 198.224 295.133 189.994 294.988 189.18C294.842 188.366 283.065 191.114 279.837 198.704C279.837 198.704 283.53 189.122 282.745 188.802C281.96 188.482 272.029 195.679 273.003 202.411C273.003 202.411 261.72 209.536 259.365 218.871C257.009 228.205 255.133 261.429 262.229 264.846Z" fill="#263238"/>
<path d="M343.58 233.527C338.375 234.981 333.141 236.755 327.586 236.638C321.668 236.522 315.954 234.152 310.793 231.273C305.627 228.3 300.981 224.504 297.038 220.034C293.534 216.137 290.596 211.644 286.772 208.053C285.827 207.166 284.344 208.518 284.853 209.594C289.855 220.296 300.091 230.154 310.604 235.33C321.668 240.782 332.995 239.837 343.551 233.672C343.682 233.629 343.667 233.512 343.58 233.527Z" fill="#263238"/>
<path d="M269.223 262.054C269.223 262.054 263.203 241.698 254.348 243.341C245.493 244.984 246.177 271.709 253.868 277.918C254.8 278.782 255.897 279.449 257.094 279.878C258.29 280.307 259.56 280.49 260.829 280.415C262.098 280.34 263.338 280.01 264.476 279.443C265.614 278.876 266.625 278.085 267.449 277.118L269.223 262.054Z" fill="#F7A9A0"/>
<path d="M254.741 251.004C254.713 250.995 254.683 250.996 254.655 251.007C254.628 251.017 254.605 251.036 254.59 251.062C254.575 251.087 254.568 251.116 254.572 251.145C254.576 251.174 254.589 251.202 254.61 251.222C259.932 255.773 261.269 262.563 261.56 269.237C260.499 266.329 258.419 264.265 254.639 265.428C254.436 265.428 254.508 265.791 254.639 265.806C255.837 265.826 256.999 266.215 257.967 266.92C258.935 267.625 259.662 268.612 260.048 269.746C260.674 271.634 261.093 273.584 261.298 275.562C261.415 276.202 262.505 276.245 262.505 275.562V275.417C265.34 267.638 262.898 254.61 254.741 251.004Z" fill="#263238"/>
<path d="M320.069 304.206C315.459 312.603 311.61 321.396 308.568 330.48C307.841 332.792 307.187 335.103 306.678 337.386C306.678 337.473 306.678 337.692 306.561 338.04C306.561 338.171 306.561 338.331 306.474 338.506C306.3 339.436 306.038 340.876 305.674 342.65C305.667 342.742 305.667 342.834 305.674 342.926C305.668 342.96 305.668 342.994 305.674 343.028C305.682 342.989 305.682 342.95 305.674 342.911C297.736 326.778 294.1 308.868 295.118 290.916L298.521 292.705L300.862 293.941L303.145 295.147L305.195 296.223L306.416 296.863L308.379 297.91L310.342 298.957L312.174 299.931L313.86 300.833L320.069 304.206Z" fill="#F7A9A0"/>
<path d="M320.069 304.191C315.459 312.589 311.61 321.382 308.568 330.465C307.841 332.777 307.187 335.089 306.678 337.372C306.678 337.459 306.678 337.677 306.561 338.026C306.561 338.157 306.561 338.317 306.474 338.491C306.3 339.422 306.038 340.861 305.674 342.635C305.681 342.722 305.681 342.81 305.674 342.897C297.736 326.764 294.1 308.853 295.118 290.902L298.521 292.69C299.306 293.097 300.091 293.504 300.862 293.926L303.145 295.133L305.195 296.209L306.431 296.878L308.393 297.925C309.082 298.274 309.736 298.623 310.356 298.971L312.188 299.946L313.875 300.847L320.069 304.191Z" fill="#263238"/>
<path d="M352.304 208.533C352.304 208.533 367.76 221.968 364.954 241.291C362.148 260.615 351.621 278.325 349.745 278.732C347.87 279.139 352.304 208.533 352.304 208.533Z" fill="#263238"/>
<path d="M353.06 274.544C348.378 295.046 340.556 314.18 330.48 321.959C324.19 326.919 316.557 329.877 308.568 330.451C305.838 330.638 303.096 330.555 300.382 330.203C296.105 317.58 294.299 304.252 295.06 290.945C295.554 282.396 297.092 273.938 299.64 265.762C300.976 261.488 302.578 257.302 304.439 253.229C304.225 252.586 304.256 251.887 304.526 251.266C304.944 250.444 305.577 249.75 306.358 249.259C309.438 243.224 313.106 237.506 317.306 232.189C318.135 231.113 318.993 230.066 319.865 229.049C320.331 228.496 320.811 227.958 321.319 227.42C329.389 218.37 338.968 210.789 349.629 205.014C350.96 206.429 352.185 207.94 353.293 209.536L353.526 209.885C355.576 212.924 356.884 217.984 357.51 224.323C358.862 237.598 357.161 256.587 353.06 274.544Z" fill="#F7A9A0"/>
<path d="M337.124 267.536C337.124 267.391 337.386 267.798 337.343 267.958C336.194 271.898 335.554 276.609 338.797 278.834C338.898 278.906 338.797 279.11 338.709 279.052C334.493 277.307 335.409 271.069 337.124 267.536Z" fill="#263238"/>
<path d="M341.69 264.279C348.189 265.413 345.427 278.354 339.393 277.365C333.359 276.376 336.267 263.319 341.69 264.279Z" fill="#263238"/>
<path d="M301.632 297.561C302.301 298.753 302.868 300.295 304.264 300.833C305.731 301.24 307.267 301.329 308.771 301.094C308.805 301.086 308.84 301.09 308.87 301.105C308.901 301.12 308.926 301.145 308.939 301.176C308.953 301.208 308.956 301.243 308.946 301.276C308.937 301.308 308.916 301.337 308.888 301.356C308.096 301.963 307.155 302.344 306.165 302.459C305.174 302.574 304.17 302.419 303.261 302.01C302.526 301.567 301.938 300.917 301.57 300.141C301.203 299.365 301.073 298.498 301.196 297.648C301.211 297.372 301.531 297.372 301.632 297.561Z" fill="#263238"/>
<path d="M326.728 284.621C326.728 284.621 326.147 290.771 325.492 293.592C325.42 293.853 317.583 291.294 308.699 292.138C307.361 292.254 307.608 291.222 309.193 290.684C312.363 289.666 316.332 288.837 323.646 290.538C324.024 289.797 324.358 281.044 324.809 281.116C326.945 281.813 328.98 282.791 330.858 284.024C332.428 271.244 331.934 258.318 333.678 245.61C333.678 245.506 333.72 245.406 333.793 245.332C333.867 245.258 333.967 245.217 334.071 245.217C334.175 245.217 334.275 245.258 334.349 245.332C334.422 245.406 334.464 245.506 334.464 245.61C335.918 259.132 334.464 273.875 333.17 287.121C332.966 288.837 327.732 285.362 326.728 284.621Z" fill="#263238"/>
<path d="M316.187 255.104C314.413 255.272 312.632 255.344 310.851 255.322C308.786 255.322 307.157 255.642 305.354 254.494C304.91 254.18 304.586 253.723 304.438 253.2C304.225 252.557 304.256 251.858 304.526 251.237C304.944 250.415 305.577 249.721 306.358 249.23C307.692 248.482 309.19 248.072 310.72 248.038C313.202 247.783 315.69 248.462 317.699 249.943C318.149 250.303 318.481 250.789 318.655 251.338C318.828 251.888 318.834 252.477 318.672 253.03C318.51 253.583 318.187 254.076 317.745 254.445C317.302 254.814 316.76 255.044 316.187 255.104Z" fill="#263238"/>
<path d="M348.8 248.634C347.219 247.808 345.685 246.896 344.205 245.9C342.446 244.825 340.934 244.156 340.047 242.207C339.851 241.633 339.852 241.01 340.049 240.436C340.247 239.862 340.63 239.37 341.137 239.038C343.391 237.729 345.863 238.5 348.029 239.706C350.251 240.841 351.968 242.765 352.842 245.101C353.025 245.645 353.042 246.231 352.892 246.785C352.742 247.34 352.431 247.837 351.999 248.215C351.567 248.593 351.032 248.834 350.463 248.909C349.894 248.983 349.315 248.888 348.8 248.634Z" fill="#263238"/>
<path d="M301.865 261.255C304.387 260.621 307.041 260.757 309.484 261.647C310.783 262.141 311.977 262.877 313.003 263.814C314.063 264.86 314.873 266.133 315.373 267.536L316.303 270.022L313.773 269.397C311.986 268.964 310.159 268.716 308.321 268.656C306.409 268.559 304.506 268.96 302.796 269.819C304.077 268.081 305.987 266.913 308.117 266.562C310.205 266.157 312.356 266.197 314.428 266.678L312.843 268.539C311.983 266.546 310.47 264.905 308.553 263.886C306.444 262.731 304.196 261.847 301.865 261.255Z" fill="#263238"/>
<path d="M307.87 272.814C309.865 272.594 311.822 272.105 313.686 271.36C314.122 271.156 315.823 270.182 315.78 269.906C315.705 268.88 315.495 267.867 315.155 266.896C315.751 267.807 316.165 268.824 316.376 269.891C316.185 270.437 315.876 270.933 315.472 271.345C315.067 271.757 314.577 272.075 314.035 272.276C312.068 273.015 309.936 273.201 307.87 272.814Z" fill="#263238"/>
<path d="M320.214 291.949C320.214 291.949 314.791 297.881 309.426 297.997C303.261 298.128 303.275 292.588 310.342 290.393C314.064 289.23 320.214 291.949 320.214 291.949Z" fill="#263238"/>
<path d="M309.44 297.983C311.787 297.81 314.037 296.973 315.925 295.569C314.936 293.519 312.319 291.076 305.384 293.708C304.119 295.918 305.558 298.07 309.44 297.983Z" fill="#FF99BA"/>
<path d="M372.631 207.369C371.948 211.106 367.92 216.588 361.697 221.386C360.362 222.434 358.969 223.404 357.524 224.294C355.498 225.58 353.374 226.703 351.17 227.653C347.227 229.407 343.057 230.596 338.782 231.186C333.388 231.913 327.266 230.183 321.334 227.406C329.4 218.362 338.974 210.786 349.629 205.014C355.617 201.751 361.915 199.091 368.429 197.075C371.453 201.234 373.067 205.014 372.631 207.369Z" fill="#263238"/>
<path d="M351.868 229.543L351.054 230.008C340.207 236.086 328.662 237.147 317.321 232.16C318.15 231.084 319.008 230.037 319.88 229.02C324.364 231.293 329.281 232.587 334.304 232.814C340.12 232.931 345.601 231.201 351.068 229.616L351.81 229.398C351.868 229.369 351.868 229.499 351.868 229.543Z" fill="#263238"/>
<path d="M321.428 497.142L349.842 506.002L377.282 418.013L348.868 409.152L321.428 497.142Z" fill="#EBEBEB"/>
<path d="M436.898 176.69C413.137 169.28 387.712 169.083 363.839 176.123C339.965 183.163 318.716 197.124 302.777 216.241C286.839 235.358 276.927 258.772 274.295 283.522C271.664 308.272 276.431 333.247 287.993 355.288C299.556 377.329 317.394 395.446 339.253 407.349C361.113 419.252 386.01 424.405 410.798 422.157C435.586 419.91 459.151 410.362 478.513 394.721C497.874 379.081 512.163 358.05 519.572 334.289C524.494 318.513 526.259 301.921 524.768 285.462C523.276 269.003 518.557 253 510.88 238.365C503.203 223.73 492.717 210.751 480.024 200.168C467.33 189.586 452.675 181.608 436.898 176.69ZM499.231 327.906C493.084 347.647 481.221 365.122 465.141 378.121C449.062 391.119 429.489 399.056 408.898 400.929C388.306 402.802 367.622 398.527 349.462 388.643C331.301 378.759 316.479 363.711 306.871 345.403C297.264 327.095 293.301 306.349 295.486 285.788C297.67 265.228 305.903 245.777 319.143 229.896C332.383 214.015 350.036 202.418 369.868 196.57C389.7 190.723 410.821 190.888 430.558 197.046C457.021 205.302 479.122 223.73 492 248.278C504.878 272.826 507.479 301.484 499.231 327.95V327.906Z" fill="#455A64"/>
<path d="M282.047 597.754L325.013 611.145L365.187 482.306L322.221 468.915L282.047 597.754Z" fill="#263238"/>
<g opacity="0.3">
<path d="M299.655 265.733C293.503 285.472 293.343 306.592 299.195 326.422C305.047 346.252 316.648 363.901 332.531 377.137C348.414 390.373 367.866 398.601 388.426 400.782C408.986 402.962 429.731 398.996 448.037 389.385C466.343 379.775 481.387 364.951 491.268 346.79C501.148 328.628 505.421 307.944 503.546 287.354C501.67 266.764 493.73 247.193 480.731 231.115C467.732 215.038 450.256 203.176 430.515 197.032C404.052 188.794 375.4 191.404 350.86 204.287C326.321 217.171 307.902 239.273 299.655 265.733Z" fill="white"/>
<path d="M294.9 294.929C294.445 322.474 304.866 349.087 323.902 369C342.938 388.913 369.056 400.52 396.593 401.304L294.9 294.929Z" fill="#EBEBEB"/>
<path d="M349.818 204.84L489.097 350.618C493.377 343.498 496.794 335.893 499.275 327.964C502.133 318.883 503.713 309.448 503.971 299.931L401.159 192.335C383.256 192.032 365.576 196.338 349.818 204.84Z" fill="#EBEBEB"/>
<path d="M303.261 255.904L435.924 394.761C442.34 392.356 448.51 389.337 454.346 385.746L313.075 237.874C309.197 243.534 305.909 249.575 303.261 255.904Z" fill="#EBEBEB"/>
<path d="M337.721 212.488L480.896 362.366C481.696 361.377 482.481 360.388 483.237 359.371L340.745 210.307C339.771 211.004 338.782 211.717 337.721 212.488Z" fill="#EBEBEB"/>
<path d="M435.531 198.718L499.085 265.239C498.155 262.331 497.064 259.306 495.843 256.427L444.153 202.324C441.381 201.006 438.507 199.804 435.531 198.718Z" fill="#EBEBEB"/>
</g>
<path d="M468.508 319.197C468.508 319.066 468.508 318.935 468.624 318.804C469.104 316.914 468.217 320.68 468.479 319.4C468.799 317.946 469.104 316.361 469.351 314.82C470.204 309.449 470.607 304.017 470.558 298.579C470.558 297.808 470.558 297.125 470.558 296.282C470.558 296.034 470.645 298.099 470.558 296.456C470.558 295.976 470.558 295.511 470.471 295.002C470.369 293.199 470.195 291.396 469.976 289.593C469.511 285.628 468.782 281.699 467.795 277.83C467.548 276.914 467.287 275.998 467.025 275.068C466.69 273.832 467.49 276.522 466.952 274.821C466.763 274.268 466.589 273.73 466.414 273.178C465.702 271.113 464.96 269.077 464.044 267.071C463.128 265.064 462.081 262.709 460.962 260.702C460.453 259.743 459.915 258.797 459.362 257.794C458.417 256.18 459.813 258.449 459.071 257.314C458.708 256.776 458.359 256.224 458.01 255.671C454.728 250.84 450.983 246.341 446.829 242.236C446.741 242.149 445.985 241.422 446.611 242.018C447.236 242.614 446.262 241.713 446.16 241.597L444.226 239.881C442.961 238.79 441.682 237.729 440.373 236.697C437.596 234.53 434.702 232.524 431.722 230.633C428.305 228.467 427.825 223.276 430.108 220.165C431.307 218.596 433.066 217.553 435.018 217.252C436.969 216.951 438.961 217.417 440.577 218.551C459.479 230.517 474.324 248.27 480.969 269.761C485.43 284.215 486.656 299.475 484.56 314.457C484.118 317.814 483.448 321.136 482.554 324.402C481.492 328.182 476.389 330.218 472.899 328.764C471.072 328.017 469.601 326.598 468.79 324.799C467.978 323 467.888 320.959 468.537 319.095L468.508 319.197Z" fill="white"/>
<path d="M460.249 339.887C459.73 341.25 459.628 342.737 459.954 344.159C460.281 345.581 461.022 346.874 462.084 347.874C463.145 348.874 464.48 349.537 465.919 349.779C467.357 350.02 468.835 349.829 470.165 349.23C471.496 348.632 472.618 347.652 473.391 346.414C474.164 345.177 474.553 343.738 474.507 342.28C474.462 340.822 473.985 339.41 473.138 338.223C472.29 337.036 471.108 336.128 469.744 335.612C468.84 335.269 467.877 335.107 466.91 335.136C465.944 335.165 464.992 335.384 464.11 335.781C463.228 336.178 462.433 336.745 461.771 337.45C461.108 338.154 460.591 338.982 460.249 339.887Z" fill="white"/>
<path d="M205.014 341.835C121.016 398.934 55.0194 528.485 84.8409 549.757C112.074 569.139 236.435 585.264 277.598 584.45C289.695 584.203 300.193 483.571 287.267 483.804C271.636 484.095 181.735 475.225 180.223 474.789C176.995 473.844 220.935 395.11 240.361 359.312C267.536 309.353 236.537 320.389 205.014 341.835Z" fill="#F7A9A0"/>
<path d="M398.207 510.354C400.068 520.198 390.937 525.098 390.937 525.098C390.937 525.098 396.52 530.826 396.535 538.518C396.535 547.315 382.766 551.211 382.766 551.211C385.475 555.755 386.752 561.009 386.43 566.289C385.586 574.723 372.224 580.626 372.224 580.626C372.407 586.176 370.585 591.606 367.091 595.922C357.306 607.074 334.929 603.425 320.68 601.244C306.431 599.063 268.074 579.55 260.382 576.526L273.585 484.924C273.585 484.924 340.236 476.519 356.623 481.448C370.407 485.636 396.113 499.26 398.207 510.354Z" fill="#F7A9A0"/>
<path d="M390.501 523.44C376.891 515.487 361.668 512.012 346.663 507.664C346.598 507.659 346.534 507.676 346.481 507.712C346.428 507.749 346.39 507.803 346.372 507.865C346.355 507.928 346.36 507.994 346.387 508.053C346.413 508.112 346.459 508.159 346.517 508.188C361.493 512.332 375.437 519.398 390.137 524.182C390.186 524.205 390.239 524.22 390.293 524.223C390.347 524.226 390.401 524.219 390.453 524.202C390.504 524.184 390.551 524.156 390.592 524.121C390.633 524.085 390.666 524.041 390.69 523.993C390.714 523.944 390.728 523.891 390.731 523.837C390.735 523.783 390.727 523.728 390.71 523.677C390.692 523.626 390.665 523.579 390.629 523.538C390.593 523.497 390.549 523.464 390.501 523.44Z" fill="#263238"/>
<path d="M382.62 549.917C379.38 548.419 375.959 547.348 372.442 546.733C368.73 545.861 365.007 545.046 361.275 544.29C353.802 542.836 346.299 541.455 338.753 540.335C338.419 540.335 338.259 540.786 338.608 540.859C346.052 542.313 353.482 544 360.854 545.832C364.547 546.743 368.23 547.712 371.904 548.74C375.312 549.853 378.833 550.584 382.402 550.921C382.516 550.91 382.624 550.864 382.71 550.788C382.796 550.712 382.855 550.611 382.88 550.499C382.904 550.387 382.892 550.27 382.845 550.166C382.799 550.061 382.72 549.974 382.62 549.917Z" fill="#263238"/>
<path d="M371.904 580.509C369.243 578.925 365.521 578.677 362.511 578.139C359.099 577.529 355.707 576.894 352.333 576.235C345.514 574.926 338.695 573.617 331.977 572.062C331.628 571.989 331.483 572.512 331.832 572.585C338.709 574.199 345.558 575.886 352.45 577.442C355.823 578.198 359.216 578.934 362.628 579.652C365.536 580.262 369.054 581.367 372.006 580.858C372.041 580.837 372.067 580.804 372.082 580.765C372.096 580.727 372.098 580.685 372.087 580.646C372.075 580.606 372.051 580.572 372.018 580.547C371.985 580.522 371.945 580.509 371.904 580.509Z" fill="#263238"/>
<path d="M182.433 471.619C181.648 470.732 225.37 395.183 244.854 354.703C264.337 314.224 244.112 312.276 205.348 339.858C163.822 369.418 78.516 458.01 71.7549 541.528C69.5885 568.587 261.327 590.629 261.327 590.629L269.964 479.151C269.964 479.151 183.64 472.986 182.433 471.619Z" fill="#FF9F1C"/>
<path d="M260.106 522.946C259.702 521.993 259.025 521.181 258.161 520.612C257.297 520.043 256.284 519.742 255.25 519.747C254.564 519.732 253.893 519.543 253.3 519.197C252.707 518.851 252.212 518.359 251.862 517.769C251.452 517.109 251.226 516.351 251.208 515.574C251.048 514.731 250.946 513.858 250.713 513C250.422 514.701 249.754 516.374 250.422 518.424C250.793 519.402 251.451 520.245 252.31 520.842C253.169 521.439 254.189 521.762 255.235 521.768C255.931 521.772 256.615 521.947 257.227 522.28C257.838 522.612 258.358 523.091 258.739 523.673C259.161 524.312 259.393 525.058 259.408 525.825C259.612 526.668 259.699 527.511 259.903 528.384C260.266 526.697 260.906 524.967 260.106 522.946ZM108.57 465.745C108.171 464.789 107.495 463.974 106.63 463.404C105.765 462.835 104.75 462.536 103.714 462.546C103.028 462.529 102.358 462.338 101.766 461.993C101.174 461.647 100.678 461.157 100.326 460.569C100.076 460.179 99.9037 459.745 99.8171 459.29C99.4827 459.871 99.1628 460.453 98.8429 461.034C98.8363 461.092 98.8363 461.151 98.8429 461.209C99.2109 462.19 99.8679 463.036 100.727 463.636C101.587 464.236 102.608 464.561 103.656 464.568C104.35 464.571 105.033 464.745 105.644 465.075C106.255 465.404 106.776 465.879 107.16 466.458C107.577 467.099 107.809 467.844 107.829 468.61C108.032 469.468 108.119 470.311 108.338 471.183C108.687 469.482 109.37 467.766 108.57 465.745ZM137.65 555.443C137.251 554.487 136.575 553.672 135.71 553.102C134.845 552.532 133.83 552.233 132.794 552.244C132.106 552.229 131.434 552.038 130.84 551.689C130.247 551.34 129.754 550.845 129.406 550.252C128.996 549.591 128.77 548.833 128.752 548.056C128.592 547.213 128.49 546.34 128.257 545.497C127.967 547.184 127.298 548.87 127.967 550.906C128.336 551.886 128.994 552.731 129.853 553.331C130.712 553.93 131.732 554.256 132.779 554.265C133.474 554.268 134.156 554.442 134.768 554.772C135.379 555.102 135.899 555.577 136.283 556.155C136.701 556.797 136.932 557.542 136.952 558.307C137.156 559.15 137.243 560.008 137.447 560.88C137.679 559.179 138.377 557.464 137.577 555.428L137.65 555.443ZM192.466 409.446C192.061 408.492 191.382 407.678 190.515 407.109C189.648 406.54 188.632 406.24 187.595 406.248C186.905 406.241 186.229 406.055 185.633 405.708C185.036 405.362 184.54 404.866 184.193 404.27C183.793 403.607 183.577 402.849 183.568 402.075C183.393 401.231 183.306 400.359 183.059 399.486C182.782 401.231 182.084 402.874 182.782 404.924C183.148 405.903 183.8 406.748 184.653 407.35C185.507 407.951 186.522 408.282 187.566 408.298C188.26 408.286 188.945 408.451 189.558 408.776C190.171 409.102 190.691 409.577 191.07 410.159C191.491 410.796 191.732 411.534 191.768 412.296C191.943 413.169 192.03 414.041 192.262 414.884C192.553 413.212 193.266 411.482 192.466 409.446ZM179.831 522.946C179.418 521.997 178.737 521.188 177.872 520.62C177.007 520.052 175.995 519.749 174.96 519.747C174.274 519.731 173.603 519.541 173.011 519.195C172.419 518.849 171.923 518.359 171.572 517.769C171.17 517.105 170.945 516.35 170.918 515.574C170.772 514.731 170.656 513.858 170.438 513C170.162 514.701 169.464 516.374 170.162 518.424C170.526 519.398 171.176 520.238 172.028 520.835C172.879 521.432 173.891 521.757 174.931 521.768C175.629 521.769 176.316 521.944 176.93 522.276C177.545 522.609 178.067 523.089 178.449 523.673C178.867 524.316 179.108 525.058 179.147 525.825C179.293 526.668 179.409 527.511 179.642 528.384C179.918 526.697 180.616 524.967 179.831 522.946ZM230.386 330.756C229.978 329.805 229.298 328.997 228.431 328.433C227.564 327.869 226.55 327.574 225.515 327.586H224.992L222.724 328.778C223.547 329.315 224.504 329.612 225.486 329.636C226.177 329.628 226.859 329.795 227.469 330.12C228.079 330.445 228.597 330.919 228.976 331.497C229.411 332.138 229.654 332.89 229.674 333.664C229.863 334.507 229.95 335.38 230.168 336.223C230.459 334.493 231.186 332.777 230.386 330.756ZM224.236 549.074C223.277 548.68 222.222 548.582 221.206 548.792C220.191 549.002 219.261 549.51 218.536 550.252C218.037 550.725 217.426 551.066 216.76 551.241C216.094 551.416 215.395 551.421 214.727 551.255C213.974 551.064 213.284 550.684 212.72 550.15C211.979 549.641 211.266 549.118 210.554 548.696C211.542 550.15 212.24 551.778 214.174 552.738C215.121 553.169 216.176 553.304 217.201 553.125C218.226 552.946 219.173 552.461 219.918 551.735C220.686 550.973 221.718 550.536 222.799 550.511C223.881 550.487 224.931 550.878 225.734 551.604C226.475 552.113 227.188 552.636 227.915 553.058C226.926 551.648 226.213 549.932 224.236 549.074ZM149.98 423.856C149.02 423.464 147.966 423.367 146.951 423.576C145.936 423.786 145.006 424.293 144.28 425.033C143.781 425.508 143.171 425.849 142.505 426.024C141.839 426.2 141.139 426.204 140.471 426.037C139.719 425.847 139.032 425.46 138.479 424.917C137.737 424.423 137.025 423.899 136.298 423.463C137.301 424.917 137.999 426.545 139.933 427.505C140.89 427.948 141.958 428.09 142.997 427.91C144.036 427.731 144.996 427.24 145.749 426.502C146.234 426.003 146.839 425.635 147.505 425.434C148.172 425.233 148.878 425.205 149.558 425.353C150.313 425.5 151.012 425.852 151.58 426.371C152.321 426.88 153.034 427.403 153.746 427.825C152.67 426.429 151.958 424.699 149.98 423.856ZM99.41 517.348C98.45 516.958 97.396 516.862 96.3814 517.071C95.3667 517.281 94.4371 517.787 93.7103 518.525C93.2113 519 92.6005 519.341 91.9345 519.517C91.2684 519.692 90.5689 519.696 89.9008 519.529C89.1507 519.343 88.4632 518.962 87.9088 518.424C87.1673 517.915 86.4548 517.391 85.7278 516.97C86.7311 518.424 87.429 520.052 89.3628 521.012C90.3097 521.443 91.3648 521.578 92.3897 521.399C93.4146 521.22 94.3615 520.735 95.1062 520.009C95.593 519.512 96.1974 519.146 96.8634 518.945C97.5294 518.744 98.2353 518.715 98.9156 518.86C99.6671 519.015 100.364 519.367 100.937 519.878C101.678 520.387 102.391 520.91 103.103 521.332C102.114 519.921 101.387 518.206 99.41 517.348ZM188.904 457.094C187.944 456.7 186.889 456.602 185.874 456.812C184.858 457.022 183.929 457.53 183.204 458.272C182.7 458.748 182.084 459.089 181.413 459.265C180.742 459.44 180.038 459.443 179.365 459.275C178.619 459.083 177.937 458.697 177.388 458.155C176.676 457.661 175.934 457.138 175.192 456.701C176.21 458.155 176.908 459.784 178.842 460.743C179.799 461.187 180.868 461.328 181.906 461.149C182.945 460.97 183.905 460.478 184.658 459.74C185.141 459.238 185.745 458.868 186.412 458.667C187.079 458.466 187.787 458.44 188.467 458.592C188.687 458.632 188.901 458.696 189.107 458.781L189.776 457.559C189.503 457.373 189.211 457.216 188.904 457.094ZM140.224 485.97C139.244 486.334 138.398 486.986 137.796 487.84C137.194 488.693 136.864 489.709 136.85 490.754C136.862 491.449 136.696 492.136 136.367 492.75C136.039 493.363 135.56 493.882 134.975 494.258C134.331 494.676 133.589 494.917 132.823 494.956C131.98 495.131 131.107 495.218 130.264 495.45C131.936 495.741 133.652 496.454 135.673 495.669C136.626 495.262 137.439 494.583 138.008 493.716C138.577 492.85 138.877 491.834 138.872 490.798C138.892 490.109 139.084 489.436 139.429 488.84C139.774 488.243 140.262 487.742 140.849 487.381C141.522 486.979 142.29 486.764 143.074 486.756C143.917 486.581 144.775 486.465 145.647 486.247C143.946 485.97 142.274 485.287 140.224 485.97ZM186.112 358.615C185.132 358.977 184.284 359.628 183.682 360.482C183.079 361.336 182.751 362.353 182.739 363.398C182.74 364.483 182.321 365.526 181.57 366.309C180.82 367.093 179.795 367.555 178.711 367.6C177.868 367.775 176.995 367.862 176.152 368.095C177.824 368.385 179.54 369.098 181.561 368.313C182.516 367.908 183.329 367.229 183.898 366.362C184.468 365.495 184.767 364.479 184.76 363.442C184.783 362.754 184.976 362.082 185.321 361.486C185.665 360.89 186.152 360.388 186.737 360.025C187.41 359.624 188.178 359.408 188.962 359.4C189.805 359.225 190.663 359.123 191.521 358.905C189.863 358.615 188.206 357.946 186.112 358.615ZM179.758 571.655C178.776 572.011 177.927 572.658 177.324 573.511C176.721 574.363 176.393 575.38 176.385 576.424C176.401 577.004 176.286 577.58 176.05 578.11L178.013 578.459C178.285 577.831 178.419 577.152 178.406 576.467C178.426 575.779 178.618 575.106 178.963 574.509C179.308 573.913 179.796 573.412 180.383 573.05C181.058 572.654 181.825 572.444 182.608 572.44C183.451 572.251 184.295 572.163 185.152 571.945C183.509 571.655 181.852 570.942 179.816 571.655H179.758ZM220.121 485.985C219.147 486.349 218.305 486.996 217.704 487.844C217.103 488.692 216.769 489.7 216.748 490.74C216.763 491.436 216.602 492.126 216.279 492.744C215.956 493.362 215.482 493.888 214.901 494.273C214.25 494.685 213.504 494.925 212.735 494.971C211.877 495.116 211.034 495.232 210.161 495.465C211.862 495.741 213.578 496.439 215.599 495.654C216.548 495.242 217.355 494.561 217.921 493.695C218.487 492.83 218.787 491.817 218.783 490.783C218.804 490.097 218.997 489.426 219.345 488.834C219.693 488.242 220.185 487.747 220.775 487.395C221.437 486.991 222.195 486.77 222.971 486.756C223.843 486.596 224.672 486.479 225.544 486.261C223.916 485.985 222.229 485.287 220.179 485.985H220.121ZM233.498 377.066C233.963 376.179 234.428 375.306 234.865 374.434C234.191 375.172 233.738 376.084 233.556 377.066H233.498ZM229.368 382.184C228.525 382.344 227.653 382.446 226.78 382.693C227.926 382.976 229.093 383.16 230.27 383.245C230.517 382.751 230.779 382.257 231.041 381.791C230.53 382.015 229.983 382.148 229.427 382.184H229.368Z" fill="white"/>
<path d="M144.673 472.841C148.337 473.35 248.75 476.679 269.906 479.951C270.24 479.951 270.284 478.86 269.906 478.817C204.476 470.093 148.366 470.456 143.975 470.776C138.799 471.096 137.825 471.896 144.673 472.841Z" fill="#263238"/>
<path d="M183.059 472.739C183.059 472.535 199.053 443.383 200.768 441.783C202.484 440.184 206.366 436.418 208.038 434.659C211.368 431.082 214.465 427.389 217.664 423.667C217.926 423.361 217.475 422.925 217.213 423.216C213.927 426.705 210.321 429.919 206.73 433.059L201.35 437.654C201.219 437.741 216.675 409.054 219.19 403.95C219.38 403.572 218.987 403.325 218.754 403.616C215.308 408.472 183.858 465.774 179.991 472.027C179.991 472.07 181.154 472.405 183.059 472.739Z" fill="#263238"/>
<path d="M103.932 561.797C134.829 570.957 254.45 589.306 260.63 590.324C260.744 588.124 261.061 585.938 261.575 583.796C261.575 583.563 262.098 583.534 262.113 583.796C262.365 586.847 262.452 589.91 262.374 592.97C262.374 593.479 144.6 577.383 103.888 562.102C103.714 562.029 103.743 561.738 103.932 561.797Z" fill="#263238"/>
<path d="M236.246 579.114C237.504 571.48 238.377 563.789 238.863 556.068C239.58 548.507 240.244 540.946 240.855 533.385C242.076 518.133 243.69 502.851 243.923 487.468C243.923 487.395 243.894 487.324 243.842 487.273C243.79 487.221 243.72 487.192 243.647 487.192C243.574 487.192 243.503 487.221 243.451 487.273C243.4 487.324 243.371 487.395 243.371 487.468C240.623 502.662 239.43 518.206 238.093 533.574C237.424 541.281 236.861 548.996 236.406 556.722C235.733 564.185 235.48 571.68 235.65 579.172C235.664 579.463 236.173 579.419 236.246 579.114Z" fill="#263238"/>
<path d="M607.278 524.676C607.304 542.096 601.789 559.073 591.531 573.152C583.236 584.574 572.149 593.675 559.33 599.585C546.512 605.495 532.391 608.016 518.319 606.906C504.247 605.797 490.696 601.094 478.962 593.249C467.228 585.403 457.704 574.677 451.301 562.097C444.899 549.517 441.832 535.505 442.395 521.401C442.959 507.296 447.132 493.573 454.517 481.543C461.902 469.514 472.251 459.581 484.573 452.696C496.895 445.811 510.779 442.204 524.894 442.22C527.143 442.22 529.382 442.307 531.611 442.481C544.379 443.492 556.732 447.476 567.685 454.113C578.707 460.825 588.012 470.016 594.86 480.954C603.029 494.07 607.333 509.224 607.278 524.676Z" fill="#455A64"/>
<path d="M542.618 563.599C541.586 566.377 543.316 566.507 543.432 567.642C543.549 568.776 543.432 570.986 540.088 574.345C536.744 577.703 531.19 576.991 530.027 578.387C528.863 579.782 526.915 585.657 524.211 587.62C521.506 589.582 520.983 588.434 517.057 589.233C513.131 590.033 510.121 595.137 508.973 597.55C507.824 599.964 509.205 604.021 506.428 604.137C503.651 604.253 502.386 598.248 499.841 595.02C497.647 592.11 496.218 588.695 495.683 585.09C494.883 581.266 496.148 573.298 495.683 570.186C495.218 567.075 486.959 561.462 483.906 557.711C480.852 553.959 476.752 546.282 476.985 543.738C477.329 541.27 478.559 539.012 480.445 537.384C481.826 536.337 481.245 535.77 481.477 534.839C481.71 533.909 482.931 533.691 483.106 532.527C483.28 531.364 482.408 527.918 481.245 527.337C480.082 526.755 479.282 528.718 478.599 528.369C477.915 528.02 475.821 525.606 475.022 525.374C474.222 525.141 474.44 526.828 473.277 524.676C472.114 522.524 471.547 516.941 470.631 515.952C469.715 514.963 469.002 517.58 466.821 515.952C464.64 514.323 463.695 511.226 462.779 510.761C461.863 510.296 460.583 510.877 459.624 509.031C458.664 507.184 460.467 503.826 459.624 504.174C458.781 504.523 456.992 507.184 456.541 504.64C456.091 502.095 458.839 493.546 458.388 488.937C458.007 484.066 459.576 479.244 462.75 475.531C462.75 475.531 463.201 473.001 463.666 471.372C464.131 469.744 474.062 463.288 475.211 461.441C475.694 460.41 475.971 459.293 476.025 458.155C490.175 447.737 507.293 442.131 524.865 442.161C527.114 442.161 529.353 442.249 531.582 442.423C531.648 442.533 531.726 442.636 531.815 442.728C532.804 444.008 533.894 444.808 536.817 445.898C539.739 446.989 540.437 448.355 539.812 449.504C539.537 449.984 539.132 450.376 538.642 450.633C538.153 450.891 537.6 451.003 537.049 450.958C535.886 451.031 534.81 450.42 533.574 451.191C532.338 451.961 531.117 456.12 529.503 456.352C527.889 456.585 525.039 452.645 524.414 451.496C523.789 450.347 525.868 447.876 524.865 446.727C523.862 445.578 522.262 445.796 519.645 445.564C517.028 445.331 510.921 446.334 511.168 447.338C511.415 448.341 520.11 447.178 520.343 449.184C520.576 451.191 513.945 454.579 512.797 454.273C511.648 453.968 510.092 451.961 508.435 451.729C506.777 451.496 505.352 452.877 504.291 453.037C503.229 453.197 501.964 451.889 500.35 452.194C498.736 452.499 498.344 453.881 497.442 454.419C496.541 454.957 494.534 454.957 494.36 456.192C494.185 457.428 496.904 458.126 497.588 458.882C498.271 459.638 496.744 462.285 497.442 462.823C498.14 463.361 502.444 459.58 503.52 458.664C504.596 457.748 505.527 453.735 507.882 453.808C510.238 453.881 510.965 457.806 511.721 458.17C512.477 458.533 514.192 457.239 516.737 457.777C519.281 458.315 521.099 463.87 521.506 465.556C521.913 467.243 523.047 468.944 522.117 469.642C521.186 470.34 517.042 469.177 516.504 468.101C515.966 467.025 519.267 465.411 519.049 465.018C518.588 464.707 518.058 464.514 517.504 464.459C516.951 464.403 516.393 464.485 515.879 464.698C514.89 465.309 514.425 466.559 513.349 466.865C512.273 467.17 509.423 463.957 508.653 464.858C507.882 465.76 509.423 468.711 510.194 469.409C510.965 470.107 513.8 470.485 514.033 471.256C514.265 472.027 512.113 473.713 509.496 473.568C506.879 473.422 504.727 471.416 503.68 472.259C502.633 473.102 503.215 475.342 502.517 476.112C501.819 476.883 498.053 476.345 496.206 478.337C494.36 480.329 493.517 483.339 491.67 485.04C489.823 486.741 488.966 484.575 486.508 486.959C484.051 489.344 483.6 494.665 483.6 496.512C483.6 498.358 483.6 499.827 482.975 499.594C482.105 498.84 481.511 497.816 481.288 496.686C481.056 495.683 481.826 493.982 481.826 493.371C481.826 492.761 478.279 489.605 476.199 489.286C474.12 488.966 472.274 490.74 470.732 491.903C469.191 493.066 466.37 492.906 465.425 493.909C464.48 494.912 463.651 503.767 464.422 505.847C465.193 507.926 466.196 507.926 468.653 506.85C471.11 505.774 469.729 503.695 471.198 504.145C471.858 504.392 472.426 504.835 472.826 505.415C473.227 505.995 473.44 506.683 473.437 507.388C473.437 508.624 470.529 511.546 470.892 512.39C471.256 513.233 473.8 512.244 475.051 512.622C476.301 513 476.897 513.771 476.505 516.984C476.112 520.198 476.345 522.597 478.191 523.644C480.038 524.69 481.099 522.19 481.885 522.48C482.67 522.771 483.848 524.676 485.011 524.56C486.174 524.443 485.578 523.411 487.773 522.713C489.969 522.015 489.227 521.564 489.62 520.168C489.697 519.814 489.85 519.48 490.067 519.189C490.285 518.898 490.562 518.657 490.88 518.482C491.198 518.307 491.55 518.203 491.912 518.175C492.274 518.147 492.638 518.197 492.979 518.322C494.433 519.02 493.429 520.052 493.546 521.23C493.662 522.408 496.323 522.495 498.402 523.193C500.481 523.891 501.63 523.193 505.788 524.647C509.947 526.101 510.15 530.187 511.91 530.884C513.669 531.582 519.427 530.419 523.542 533.429C527.657 536.439 526.537 541.978 528.616 543.607C530.695 545.235 538.431 547.416 541.44 547.969C544.45 548.521 544.901 546.515 547.329 547.038C549.757 547.562 551.139 548.318 551.953 551.662C552.694 554.657 543.665 560.822 542.618 563.599Z" fill="#FF9F1C"/>
<path d="M480.562 504.538C480.634 505.192 482.568 505.469 484.924 506.777C487.279 508.086 488.079 511.939 489.286 511.852C490.492 511.764 490.129 510.005 490.594 509.554C490.805 509.424 490.978 509.242 491.099 509.026C491.219 508.809 491.282 508.566 491.282 508.318C491.282 508.071 491.219 507.827 491.099 507.611C490.978 507.395 490.805 507.213 490.594 507.083C489.358 506.079 488.151 503.927 485.912 503.622C483.673 503.317 483.266 502.386 482.277 502.459C482.019 502.458 481.765 502.515 481.532 502.625C481.298 502.734 481.092 502.894 480.928 503.093C480.764 503.292 480.646 503.525 480.583 503.774C480.519 504.024 480.512 504.285 480.562 504.538Z" fill="#FF9F1C"/>
<path d="M493.27 511.008C492.921 511.953 493.27 512.622 495.727 513.247C498.184 513.873 500.51 512.622 499.74 512.128C498.969 511.634 497.806 511.852 498.286 511.008C498.766 510.165 498.591 508.929 496.585 509.162C494.578 509.394 493.575 510.165 493.27 511.008Z" fill="#FF9F1C"/>
<path d="M501.892 511.27C501.048 511.401 500.583 512.855 501.426 513.785C502.27 514.716 502.27 514.556 503.273 513.785C504.276 513.015 505.817 512.637 505.439 511.866C505.061 511.096 502.735 511.154 501.892 511.27Z" fill="#FF9F1C"/>
<path d="M508.595 514.425C508.973 513.262 510.906 514.425 511.75 515.632C512.082 516.311 512.255 517.057 512.255 517.813C512.255 518.569 512.082 519.315 511.75 519.994C511.285 521.317 510.979 522.902 509.903 522.233C508.827 521.564 509.976 519.776 509.816 518.685C509.656 517.595 508.275 515.37 508.595 514.425Z" fill="#FF9F1C"/>
<path d="M541.775 450.188C541.368 451.147 543.229 451.496 544.319 452.107C545.41 452.717 546.239 453.11 546.864 452.107C546.976 451.882 547.036 451.635 547.04 451.383C547.044 451.132 546.992 450.883 546.888 450.654C546.783 450.426 546.629 450.223 546.436 450.062C546.243 449.901 546.017 449.785 545.773 449.722C544.93 449.49 542.167 449.286 541.775 450.188Z" fill="#FF9F1C"/>
<path d="M556.329 459.188C557.042 459.944 558.249 459.813 559.107 460.889C559.964 461.965 559.645 463.797 560.721 464.349C561.796 464.902 562.567 464.349 562.64 463.579C562.712 462.808 561.099 460.889 561.259 460.496C561.418 460.104 563.483 461.034 563.948 462.198C564.414 463.361 563.483 464.96 564.574 465.28C565.664 465.6 565.417 464.204 565.882 463.826C566.347 463.448 567.336 463.681 567.264 462.75C566.894 461.33 566.084 460.063 564.952 459.13C563.95 458.265 562.767 457.634 561.491 457.283C560.793 457.086 560.062 457.04 559.345 457.147C558.628 457.255 557.942 457.515 557.333 457.908C556.475 458.65 555.893 458.737 556.329 459.188Z" fill="#FF9F1C"/>
<path d="M589.641 473.699C589.598 474.014 589.443 474.303 589.204 474.513C587.59 475.676 585.657 471.605 583.388 470.892C581.12 470.18 580.161 467.272 579.695 467.897C579.23 468.522 579.39 469.351 578.692 470.354C577.994 471.358 576.991 471.125 576.54 473.059C576.089 474.993 578.692 478.526 578.081 479.675C577.471 480.823 576.627 480.445 575.45 480.373C574.272 480.3 574.461 481.361 572.847 480.911C571.233 480.46 572.614 478.439 570.07 476.054C567.525 473.67 566.682 473.146 567.162 472.128C567.642 471.111 566.929 469.511 568.078 469.351C569.226 469.191 570.157 470.892 570.986 471.358C571.815 471.823 572.76 470.442 572.832 469.206C572.905 467.97 570.142 466.298 569.139 465.324C568.136 464.349 568.063 460.962 568.456 460.191C568.848 459.42 569.997 459.726 570.302 458.039C570.477 457.036 568.848 455.378 567.569 454.171C576.03 459.315 583.504 465.928 589.641 473.699Z" fill="#FF9F1C"/>
<path d="M601.142 542.735C601.374 540.277 600.138 540.117 601.374 535.581C601.75 533.788 601.744 531.936 601.358 530.145C600.973 528.354 600.215 526.664 599.135 525.185C598.219 524.182 596.227 524.487 594.599 525.49C592.97 526.493 594.133 527.264 593.057 527.642C591.981 528.02 590.905 527.409 589.902 527.497C588.899 527.584 587.968 530.099 585.816 530.027C583.665 529.954 582.283 526.871 580.655 524.676C579.026 522.48 575.726 521.099 574.65 518.409C573.574 515.719 575.653 511.546 575.188 508.391C574.722 505.236 572.658 505.934 572.28 504.16C571.902 502.386 572.585 503.229 573.123 501.543C573.661 499.856 572.512 498.926 573.588 496.003C574.664 493.081 576.598 491.641 576.133 490.303C575.668 488.966 574.214 486.828 574.126 485.302C574.039 483.775 575.58 483.848 578.488 481.681C581.396 479.515 582.182 479.675 584.421 480.445C586.024 481.038 587.672 481.5 589.35 481.827C590.658 482.059 592.432 485.447 592.97 485.302C593.508 485.156 593.581 484.138 593.813 482.684C593.961 482.044 594.295 481.462 594.773 481.012C603.46 494.951 607.791 511.165 607.211 527.58C606.631 543.994 601.166 559.862 591.516 573.152C599.382 561.244 600.909 545.25 601.142 542.735Z" fill="#FF9F1C"/>
<path d="M430.457 524.676C430.457 533.08 430.82 541.673 433.132 549.888L433.845 553L434.848 556.024L436.898 562.102L439.53 567.918C439.98 568.878 440.388 569.881 440.882 570.826L442.467 573.618C446.699 581.126 451.927 588.027 458.01 594.133L462.721 598.568C464.262 600.022 466.08 601.258 467.752 602.61C471.185 605.253 474.779 607.681 478.511 609.88C480.387 610.942 482.364 611.843 484.327 612.788L487.235 614.242C488.224 614.693 489.256 615.027 490.26 615.435L496.337 617.717L502.619 619.404L505.759 620.233L508.973 620.756L515.399 621.789L521.899 622.181L525.156 622.37C526.232 622.37 527.322 622.37 528.398 622.254L534.912 621.978C537.079 621.745 539.274 621.367 541.368 621.062C545.665 620.36 549.915 619.389 554.09 618.154C556.155 617.499 558.176 616.7 560.226 615.973L563.294 614.853C564.297 614.431 565.272 613.937 566.202 613.472L572.091 610.651L577.674 607.278C579.551 606.173 581.348 604.939 583.054 603.584C584.77 602.247 586.573 601.025 588.216 599.601C591.518 596.768 594.636 593.728 597.55 590.498C603.443 584.089 608.415 576.89 612.323 569.11L615.1 563.221C615.943 561.215 616.554 559.136 617.339 557.115L618.43 554.047C618.764 553.014 618.982 551.938 619.259 550.892L620.829 544.581C622.408 536.07 622.906 527.394 622.312 518.758C621.1 501.576 615.207 485.053 605.272 470.982C595.338 456.91 581.74 445.827 565.955 438.934C580.893 446.693 593.544 458.221 602.654 472.376C611.674 486.352 616.845 502.463 617.645 519.078C617.927 527.295 617.249 535.518 615.624 543.578L614.039 549.525C613.748 550.513 613.544 551.517 613.21 552.433L612.119 555.341C611.378 557.246 610.738 559.208 609.909 561.07L607.205 566.58C606.309 568.418 605.294 570.196 604.166 571.902C603.061 573.618 602.13 575.464 600.88 577.078C598.526 580.424 595.946 583.606 593.159 586.602C590.407 589.623 587.464 592.464 584.348 595.108C582.792 596.445 581.091 597.579 579.463 598.815L577.005 600.647C576.177 601.244 575.275 601.723 574.417 602.261C546.937 620.32 509.743 621.28 480.707 605.765C473.467 601.802 466.742 596.963 460.685 591.356C454.598 585.686 449.297 579.226 444.924 572.149L443.237 569.532C442.699 568.645 442.278 567.685 441.783 566.769L438.875 561.215L436.563 555.399L435.415 552.491L434.557 549.481C433.99 547.475 433.379 545.468 432.856 543.433L431.736 537.238C431.547 536.206 431.329 535.174 431.169 534.141L430.907 531.001L430.457 524.676Z" fill="#212529"/>
<path d="M557.943 450.042L569.096 455.349L576.976 431.809L571.233 429.075L557.943 450.042Z" fill="#212529"/>
<path d="M517.551 648.891H529.532V619.549H517.551V648.891Z" fill="#212529"/>
<path d="M479.631 648.862H567.453V637.972H479.631V648.862Z" fill="#212529"/>
</svg>
