<svg width="83" height="94" viewBox="0 0 83 94" fill="none" xmlns="http://www.w3.org/2000/svg">
<mask id="mask0_29_1952" style="mask-type:luminance" maskUnits="userSpaceOnUse" x="6" y="48" width="47" height="46">
<path d="M6.40369 48.5665H52.1503V93.9998H6.40369V48.5665Z" fill="white"/>
</mask>
<g mask="url(#mask0_29_1952)">
<path d="M51.8667 82.9427C51.7222 83.3025 51.4579 83.9708 46.3956 85.6305C44.1998 86.3526 41.1815 87.1947 39.9111 87.1947C39.6736 87.1947 39.3211 87.1702 39.0323 86.967C38.1804 86.3624 38.2587 84.9842 38.3493 83.3882C38.3836 82.7884 38.435 81.8778 38.3444 81.6232C37.8279 80.1594 36.812 79.3858 35.2331 79.2537C35.003 79.2341 34.7802 79.2243 34.5697 79.2243C33.1817 79.2243 32.2417 79.638 31.7742 80.4531C30.9248 81.9292 31.5955 84.4285 32.5795 86.1225C32.7338 86.3869 32.8757 86.6219 33.0006 86.83C33.5563 87.7504 33.9235 88.3575 33.6762 89.0551C33.4118 89.8042 32.675 90.0685 31.0667 90.6463C30.8562 90.7197 30.6286 90.8029 30.3813 90.8935C28.6727 91.5153 26.9616 92.1297 25.2505 92.7466C24.3643 93.0672 21.7793 93.9999 21.7793 93.9999L21.4831 93.1823C21.2849 92.6291 21.0474 91.7601 20.7733 90.754C20.0487 88.1078 18.5432 82.6 17.0157 82.0516C16.8468 81.9904 16.6901 81.961 16.5359 81.961C15.8334 81.961 15.1357 82.622 14.3964 83.3196C13.454 84.2107 12.3867 85.2217 10.9082 85.2217C10.3011 85.2217 9.68175 85.043 9.05998 84.6978C8.10774 84.1617 7.39784 83.163 7.11633 81.9635C6.83482 80.7616 7.02331 79.5596 7.63284 78.6686C8.59732 77.2562 9.81149 77.0946 10.6389 77.0946C10.9963 77.0946 11.3488 77.1264 11.689 77.1582C12.0171 77.1901 12.3279 77.2194 12.6315 77.2194C12.9962 77.2194 13.29 77.1754 13.5543 77.0799C14.1516 76.8669 14.5164 76.5609 14.7049 76.1203C15.2997 74.7324 14.1394 72.1082 13.2067 70.0005C12.6462 68.7325 12.1174 67.533 11.9216 66.5637L11.8971 66.4462C11.6352 65.139 11.503 64.4829 11.7698 63.8807C12.0832 63.1757 12.7367 62.9677 13.7257 62.6519C14.0782 62.5417 14.4748 62.4144 14.9595 62.2406C15.5421 62.0301 16.296 61.8269 17.094 61.6115C18.8614 61.1317 21.2849 60.4757 22.1833 59.5724C23.2456 58.5051 22.9029 57.8883 21.5615 56.253C20.3767 54.8088 18.7537 52.8333 20.8026 50.3878C21.5909 49.4478 22.9103 48.8652 24.2419 48.8652C25.2578 48.8652 26.1856 49.2055 26.8588 49.8297C28.21 51.0757 28.0436 52.5861 27.9089 53.7978C27.8306 54.5077 27.7547 55.1809 27.975 55.7145C28.1635 56.1747 28.5527 56.6986 29.8966 56.6986C32.1952 56.6986 35.6052 55.1613 38.0971 54.0377C39.0176 53.6215 38.4227 53.837 39.0176 53.6215L39.2917 53.5138C40.3443 53.0977 41.5291 53.6509 41.8914 54.7231C42.075 55.2347 42.0432 54.8528 42.4324 55.7439C44.6331 60.7597 46.2756 65.019 44.1043 66.3238C43.5095 66.6812 42.8339 66.7203 42.3786 66.7203C42.0358 66.7203 41.6833 66.6934 41.3431 66.6689C41.0151 66.642 40.6748 66.6175 40.3615 66.6175C39.8254 66.6175 39.4386 66.6959 39.1522 66.8599C37.7569 67.6628 37.1057 69.3274 37.5317 70.9993C37.8915 72.4068 39.0004 73.6161 40.2317 73.9392C40.4863 74.0053 40.7287 74.0396 40.949 74.0396C41.7543 74.0396 42.3174 73.5867 43.0321 73.0139C43.5976 72.5586 44.2365 72.0445 45.0688 71.741C45.8105 71.4717 46.2805 71.3616 46.6942 71.3616C48.0112 71.3616 48.3662 72.4313 48.7774 73.67C48.8729 73.9613 48.9806 74.2893 49.1152 74.6589C49.2278 74.9722 49.5118 75.594 49.8398 76.3137C51.5631 80.0835 52.2657 81.9341 51.8667 82.9427Z" fill="#51B59F"/>
</g>
<mask id="mask1_29_1952" style="mask-type:luminance" maskUnits="userSpaceOnUse" x="36" y="42" width="47" height="46">
<path d="M36.8436 42.1115H82.1913V87.2314H36.8436V42.1115Z" fill="white"/>
</mask>
<g mask="url(#mask1_29_1952)">
<path d="M82.1913 72.3579L81.3737 72.6541C80.8865 72.8304 80.1497 73.0335 79.222 73.293C77.4741 73.7777 75.0825 74.4386 73.1707 75.2709C70.4731 76.4435 70.15 77.3321 70.1377 77.6601C70.1182 78.135 70.9039 79.2659 71.4792 80.0909C72.6126 81.7236 73.9002 83.5743 73.2172 85.1703C72.7766 86.1984 71.6457 86.8398 69.7559 87.1311C69.3887 87.1874 69.0386 87.2168 68.7228 87.2168C65.4206 87.2168 65.4084 84.2939 65.3986 82.3576C65.3937 81.1043 65.3863 79.8094 64.7572 79.3222C64.5369 79.1509 64.1575 79.0603 63.663 79.0603C61.4427 79.0603 57.6656 80.7934 55.1687 81.9415C54.1896 82.3919 53.345 82.7787 52.7649 82.9892L51.9473 83.283L51.6535 82.4654C51.4724 81.966 51.2594 81.1998 50.9901 80.2304C50.5152 78.5218 49.8641 76.1816 49.0808 74.2795C47.9621 71.5574 47.1494 71.1266 46.8532 71.0679C46.814 71.0605 46.7699 71.0581 46.7234 71.0581C46.0649 71.0581 45.0344 71.8316 44.1262 72.5146C42.9145 73.4252 41.6611 74.3676 40.3686 74.3676C39.0345 74.3676 38.0162 73.4007 37.343 71.4889C36.8118 69.9785 36.8265 68.828 37.3944 67.9712C38.2757 66.6371 40.1165 66.5221 41.8961 66.4119C43.0981 66.336 44.4591 66.2528 44.8581 65.7485C45.9352 64.385 44.5423 61.5455 43.3135 59.0388C42.278 56.9311 41.3013 54.941 41.4457 53.3474L41.4971 52.7966L42.0161 52.6081C42.5571 52.4123 43.3135 52.0818 44.1898 51.7C46.7797 50.5666 50.0012 49.1566 52.2117 49.1566C53.2765 49.1566 54.0574 49.4846 54.5347 50.1333C55.132 50.9435 55.0757 51.9717 55.0219 52.9655C54.9631 54.0377 54.9093 55.0536 55.6167 55.7464C56.3046 56.4195 57.1711 56.7745 58.1234 56.7745C58.6105 56.7745 59.1099 56.6815 59.6068 56.5003C61.1 55.9544 62.0302 54.8235 62.1624 53.3988C62.2652 52.3046 61.8124 51.7636 61.1857 51.0121C60.7524 50.4956 60.2628 49.9081 59.952 49.0905C59.5799 48.1113 59.411 47.3769 59.7194 46.7307C60.0621 46.011 60.8038 45.7638 61.832 45.4259C62.1282 45.328 62.466 45.2154 62.8405 45.0783C63.1343 44.9731 63.7413 44.6965 64.4439 44.3758C67.0607 43.1837 69.325 42.1971 70.5196 42.1971C70.7742 42.1971 70.9896 42.2363 71.1806 42.322C72.0594 42.7063 72.6787 44.1824 73.9443 48.8995C74.1132 49.5262 74.2576 50.0672 74.3408 50.3095C74.4461 50.618 74.5709 50.9313 74.6933 51.2324C75.2465 52.6081 76.0029 54.4906 73.9369 55.5897C73.4669 55.8394 72.9406 55.9569 72.2772 55.9569C71.91 55.9569 71.5453 55.9226 71.1903 55.8883C70.8427 55.8565 70.5123 55.8247 70.1916 55.8247C69.5502 55.8247 69.1096 55.9544 68.718 56.2555C67.5503 57.1613 67.0778 59.0094 67.6213 60.5541C68.1623 62.0987 69.6335 63.2174 71.1169 63.2174H71.1683C72.0153 63.2027 72.7056 62.5344 73.4351 61.827C74.1792 61.1048 74.9479 60.3582 75.9883 60.2848C76.0323 60.2823 76.0764 60.2799 76.1204 60.2799C78.446 60.2799 79.8339 64.4609 81.2831 69.511C81.5279 70.3629 81.7384 71.0997 81.8975 71.5403L82.1913 72.3579Z" fill="#397DC9"/>
</g>
<mask id="mask2_29_1952" style="mask-type:luminance" maskUnits="userSpaceOnUse" x="0" y="18" width="46" height="47">
<path d="M0 18.4866H45.8837V64.2332H0V18.4866Z" fill="white"/>
</mask>
<g mask="url(#mask2_29_1952)">
<path d="M44.6744 38.7431C43.7026 39.8446 42.065 39.8471 40.6183 39.8495C39.6929 39.852 38.7358 39.852 38.1752 40.1384C36.9072 40.7822 37.1691 42.0331 38.234 44.5911C38.4029 45.0024 38.5669 45.3892 38.6991 45.7637C38.8068 46.0648 39.0614 46.5886 39.3307 47.1419C40.3881 49.3132 41.1103 50.9337 40.7823 52.0255C40.3367 53.5162 38.6844 54.0401 37.0884 54.5468C36.7334 54.6594 36.3662 54.7745 36.0235 54.8993C35.5755 55.0609 35.0517 55.2959 34.4985 55.5456C33.2109 56.1282 31.7519 56.7842 30.479 56.8454C30.1461 56.8601 29.8939 56.8674 29.6883 56.8674C29.1449 56.8674 28.5329 56.8332 28.1241 56.4048C27.7202 55.9813 27.7422 55.4477 27.7667 54.9287C27.7814 54.6031 27.7985 54.1992 27.7447 53.6803C27.4729 51.0292 26.0556 49.4454 23.9528 49.4454C22.5918 49.4454 21.292 50.1406 20.6408 51.2177C20.0166 52.2531 20.0558 53.5016 20.751 54.8357C20.8562 55.0315 21.2748 55.4403 21.6102 55.7708C22.5208 56.6594 23.4608 57.5773 23.2601 58.6202C23.0177 59.8784 21.3238 60.4438 19.3043 61.0044C19.013 61.0828 18.7412 61.1586 18.6017 61.21C18.139 61.379 17.6274 61.6017 17.0889 61.8392C15.8405 62.3899 14.5504 62.9579 13.3142 63.09C12.6655 63.1586 12.4844 63.303 12.4085 63.3642C12.3155 63.4376 12.0976 63.6115 11.772 63.6115H11.7696C11.1747 63.6115 10.9495 63.117 10.8394 62.8795C10.7414 62.6666 10.5603 62.2675 10.1393 61.5723C9.68884 60.8233 9.42202 59.9273 9.16499 59.0608C9.05238 58.6789 8.94712 58.3191 8.82962 57.9984C8.75863 57.7952 8.58483 57.4133 8.3841 56.9727C7.10139 54.1454 6.58488 52.6374 7.10384 51.7146C7.73785 50.5836 9.04504 50.5836 9.47342 50.5836C9.80879 50.5836 10.1564 50.6106 10.4893 50.6375C10.8149 50.662 11.1184 50.684 11.4048 50.684C11.6692 50.684 11.8797 50.6644 12.0437 50.6204C13.4317 50.2605 14.4647 49.2446 14.8074 47.9032C15.1526 46.5519 14.7169 45.1419 13.6398 44.1309C12.9299 43.4578 12.1808 43.1322 11.3534 43.1322C10.7659 43.1322 10.127 43.3011 9.45139 43.634C9.25066 43.7344 8.78311 44.2166 8.44285 44.5691C7.59343 45.443 6.7954 46.2704 5.90926 46.2704L5.85296 46.268C4.12228 46.2019 2.87385 42.9853 0.893481 36.256C0.66093 35.4653 0.4602 34.7823 0.345148 34.4592L0.0489502 33.6416L0.866554 33.3479C1.76494 33.0223 2.91301 32.7188 4.12473 32.3956C6.73421 31.7004 9.98014 30.8363 11.3314 29.5414C11.9532 28.9441 12.2689 28.4765 12.2396 28.1828C12.2126 27.8939 11.865 27.4827 11.466 27.0102C11.0793 26.55 10.5946 25.9772 10.176 25.2453C9.33879 23.7814 9.34124 21.97 10.1833 20.5134C10.8957 19.2821 12.0609 18.5771 13.3779 18.5771C14.1024 18.5771 14.8393 18.7926 15.5687 19.2161C17.5173 20.3519 17.4267 22.3274 17.3533 23.9112C17.2798 25.495 17.3288 26.2318 18.0852 26.6528C18.2663 26.7532 18.5283 26.8046 18.8636 26.8046C20.4401 26.8046 22.8782 25.6908 24.6554 24.8781C25.3531 24.5599 25.9577 24.2832 26.413 24.1192C26.8267 23.9675 27.1645 23.8255 27.4632 23.7006C28.0653 23.4485 28.4986 23.2649 28.9907 23.2649C29.8866 23.2649 30.4863 23.9136 31.0224 24.5745C31.9159 25.6761 32.403 27.4974 32.8314 29.1081C33.0175 29.8008 33.1913 30.4544 33.3749 30.9612C33.4826 31.2574 33.5878 31.5658 33.6907 31.8767C34.3247 33.7616 34.8167 34.9978 35.8375 34.9978C36.0994 34.9978 36.4078 34.9292 36.753 34.797C37.1716 34.633 37.5535 34.1997 37.9574 33.7395C38.5449 33.0737 39.2107 32.3148 40.2609 32.0603C40.5864 31.9819 40.9169 31.9403 41.2449 31.9403C43.3281 31.9403 45.0955 33.529 45.355 35.6342C45.5263 37.0124 45.3036 38.0283 44.6744 38.7431Z" fill="#F8E505"/>
</g>
<mask id="mask3_29_1952" style="mask-type:luminance" maskUnits="userSpaceOnUse" x="22" y="0" width="46" height="45">
<path d="M22.0703 0H67.817V44.8066H22.0703V0Z" fill="white"/>
</mask>
<g mask="url(#mask3_29_1952)">
<path d="M67.4327 20.6775C67.4743 21.6445 66.5808 22.3127 66.0545 22.6383C65.4229 23.9284 64.2895 25.0446 63.1904 26.1242C62.5026 26.8022 61.8514 27.4436 61.3814 28.0702C59.9763 29.9527 59.9885 30.5329 60.0253 30.665C60.0914 30.9049 60.8013 31.1962 61.4279 31.4557C62.2357 31.7886 63.2418 32.2023 64.2259 32.9343C65.702 34.0334 66.265 35.7959 65.6897 37.5339C65.0973 39.3258 63.4842 40.5791 61.7682 40.5791C61.0314 40.5791 60.3141 40.3588 59.6361 39.9279C58.3901 39.1299 57.7805 37.906 57.2909 36.9244C56.8014 35.9403 56.5443 35.5095 56.1576 35.5095C55.9152 35.5095 55.4452 35.6245 54.5933 36.1802C53.4037 36.9562 52.2115 38.5938 51.1589 40.0357C50.6424 40.7456 50.1553 41.4138 49.6755 41.9818C48.4785 43.3966 47.6927 44.2632 46.6768 44.2632C45.842 44.2632 45.2276 43.7173 44.2093 42.814C43.918 42.5595 43.5924 42.2657 43.2105 41.945C42.956 41.7321 42.5006 41.4114 41.9719 41.0418C39.852 39.5534 38.1997 38.3197 37.8349 37.1006C37.2156 35.0223 38.5693 34.4887 39.3771 34.1705C39.7663 34.0187 40.1678 33.8596 40.5276 33.5707C41.9205 32.4545 42.6744 30.7997 42.4468 29.3554C42.2534 28.129 41.3917 27.1963 39.9573 26.6529C39.3942 26.4399 38.8704 26.3322 38.4053 26.3322C36.114 26.3322 35.0908 29.0102 34.0774 32.2439L33.6196 33.7102L22.3347 24.3617L22.9002 23.6909C23.1401 23.4045 23.5758 22.8121 24.0825 22.1267C27.6393 17.3043 29.8792 14.6899 31.5217 14.6899C31.7029 14.6899 31.8791 14.7218 32.0431 14.7805C33.015 15.1379 33.4923 16.2321 33.955 17.2896C34.2879 18.0534 34.6673 18.9199 35.1275 19.2063C35.808 19.6323 36.4935 19.8453 37.1666 19.8453C37.7003 19.8453 38.2486 19.7106 38.7896 19.4413C40.2118 18.7339 40.9805 17.6935 41.0099 16.4329C41.0441 14.8907 39.9499 13.2359 38.2853 12.313C37.6856 11.9801 37.1838 11.7696 36.7823 11.5982C36.0749 11.2971 35.4604 11.0377 35.2768 10.3645C35.0565 9.57135 35.573 8.8639 36.704 7.31437C36.8876 7.06468 37.0932 6.77338 37.316 6.4576C38.442 4.86156 39.9597 2.70984 41.3819 1.71109C41.6537 1.09667 42.2559 0 43.3623 0C44.4247 0 45.1664 1.08443 45.4798 1.59359C46.4589 2.42099 47.4405 3.24838 48.4197 4.07333C48.733 4.33771 49.1027 4.70245 49.5311 5.12349C50.5396 6.11734 52.2287 7.77948 53.1491 7.83823C53.2005 7.84312 53.2543 7.84312 53.3057 7.84312C54.3216 7.84312 54.6472 7.16015 55.198 5.48333C55.7292 3.86771 56.4562 1.65479 59.166 1.65479H59.2517C60.4488 1.67682 61.6727 2.30838 62.5246 3.34875C63.3251 4.32302 63.6702 5.51026 63.4744 6.60692C63.1415 8.4551 61.8 9.08666 60.7229 9.59093C60.2309 9.82348 59.7658 10.0413 59.4011 10.3522C58.767 10.8981 58.4684 11.3975 58.4831 11.8822C58.5222 13.0449 60.3313 14.4011 61.7853 15.488C62.3067 15.8796 62.8012 16.2468 63.2369 16.6165C64.1573 17.39 65.0802 18.166 65.9982 18.9469C66.921 19.4071 67.4057 19.9897 67.4327 20.6775Z" fill="#EF3220"/>
</g>
<path d="M33.2744 34.1288C33.3747 34.212 33.4971 34.2536 33.6195 34.2536C33.7737 34.2536 33.9304 34.1875 34.0357 34.0553C34.2266 33.8252 34.1948 33.4825 33.9647 33.2916L23.9037 24.9564C23.6736 24.7655 23.3309 24.7973 23.14 25.0299C22.9491 25.26 22.9809 25.6027 23.2134 25.7936L33.2744 34.1288ZM52.1307 83.7945C52.0695 83.8166 52.0083 83.8264 51.9471 83.8264C51.7243 83.8264 51.5162 83.6893 51.4379 83.469L51.1417 82.6514C50.9557 82.1275 50.7402 81.354 50.4685 80.3748C49.9961 78.6808 49.3498 76.3578 48.5812 74.4851C47.4698 71.7875 46.755 71.6039 46.7477 71.6015C46.7404 71.6015 46.733 71.6015 46.7232 71.6015C46.2459 71.6015 45.1663 72.4117 44.4516 72.9503C43.1688 73.9148 41.8421 74.9111 40.3684 74.9111C39.2767 74.9111 37.7785 74.3505 36.8312 71.67C36.2388 69.9883 36.2755 68.6811 36.9413 67.6701C37.9719 66.1108 40.038 65.9835 41.8617 65.8685C42.6744 65.8195 44.1847 65.724 44.432 65.4107C45.2985 64.3165 43.9277 61.5234 42.8261 59.2787C42.0379 57.6728 41.2937 56.1527 41.0098 54.7647L40.645 54.7304C39.2057 54.5983 37.2841 55.5456 35.2498 56.5468C32.6036 57.8491 29.6049 59.3252 27.9746 58.0327C27.2819 57.4819 27.1962 56.1184 27.1081 54.6766C27.0053 53.0242 26.8975 51.318 25.7911 50.5861C25.0885 50.1186 24.0947 50.121 22.7606 50.5935C21.0911 51.1834 20.2441 52.0304 20.2441 53.1099C20.2441 54.2237 21.1303 55.4036 21.987 56.5468C22.7557 57.5725 23.5512 58.6349 23.5512 59.4745C23.5512 59.5577 23.5439 59.6361 23.5292 59.712C23.3628 60.5565 22.1755 61.4402 19.9993 62.3386C18.0704 63.1366 15.7155 63.7926 13.9946 64.27C13.0375 64.5368 12.2835 64.7473 11.7988 64.9211L10.9837 65.2173C10.9225 65.2393 10.8613 65.2491 10.8001 65.2491C10.5773 65.2491 10.3692 65.1121 10.2909 64.8917C10.1881 64.6078 10.335 64.2969 10.6165 64.1965L11.4316 63.9003C11.953 63.7118 12.7266 63.4964 13.7033 63.2247C15.3972 62.7523 17.7154 62.106 19.5856 61.3349C22.2808 60.2211 22.4644 59.5063 22.4644 59.5014C22.4668 59.4916 22.4668 59.4843 22.4668 59.4745C22.4668 58.9972 21.6566 57.9152 21.1205 57.2004C20.156 55.9152 19.1597 54.586 19.1597 53.1099C19.1597 52.0182 19.7227 50.5151 22.3983 49.5702C24.0776 48.9754 25.3823 49.0121 26.3908 49.6779C27.9477 50.711 28.075 52.7795 28.19 54.6056C28.239 55.4208 28.3345 56.9311 28.6478 57.1808C29.742 58.0474 32.5302 56.6741 34.77 55.5725C36.9462 54.5028 39 53.4893 40.743 53.6485L41.2937 53.6999C41.4504 53.7146 41.585 53.7953 41.6732 53.9128C41.8568 53.974 41.9987 54.1307 42.033 54.3339C42.246 55.6313 42.9999 57.1686 43.8004 58.7989C45.1003 61.45 46.5739 64.4536 45.2814 66.0863C44.7355 66.7791 43.372 66.8648 41.9302 66.9553C40.2803 67.0557 38.579 67.161 37.8446 68.2699C37.3795 68.9749 37.382 69.9687 37.8544 71.3077C38.4444 72.9772 39.2889 73.8266 40.3684 73.8266C41.4798 73.8266 42.6572 72.9405 43.798 72.0813C44.8236 71.3102 45.8836 70.5146 46.7232 70.5146C46.804 70.5146 46.8848 70.5219 46.9582 70.5366C47.8027 70.7031 48.6864 71.8928 49.5824 74.0714C50.378 76.0028 51.034 78.3626 51.5113 80.0835C51.7782 81.0406 51.9887 81.797 52.1625 82.2817L52.4562 83.0993C52.559 83.3808 52.4122 83.6917 52.1307 83.7945Z" fill="#110F0D"/>
</svg>
